<?xml version="1.0" encoding="utf-8" standalone="no"?>
<!DOCTYPE svg PUBLIC "-//W3C//DTD SVG 1.1//EN"
  "http://www.w3.org/Graphics/SVG/1.1/DTD/svg11.dtd">
<!-- Created with matplotlib (https://matplotlib.org/) -->
<svg height="291.545625pt" version="1.1" viewBox="0 0 383.7 291.545625" width="383.7pt" xmlns="http://www.w3.org/2000/svg" xmlns:xlink="http://www.w3.org/1999/xlink">
 <metadata>
  <rdf:RDF xmlns:cc="http://creativecommons.org/ns#" xmlns:dc="http://purl.org/dc/elements/1.1/" xmlns:rdf="http://www.w3.org/1999/02/22-rdf-syntax-ns#">
   <cc:Work>
    <dc:type rdf:resource="http://purl.org/dc/dcmitype/StillImage"/>
    <dc:date>2023-02-28T22:58:04.974937</dc:date>
    <dc:format>image/svg+xml</dc:format>
    <dc:creator>
     <cc:Agent>
      <dc:title>Matplotlib v3.3.4, https://matplotlib.org/</dc:title>
     </cc:Agent>
    </dc:creator>
   </cc:Work>
  </rdf:RDF>
 </metadata>
 <defs>
  <style type="text/css">*{stroke-linecap:butt;stroke-linejoin:round;}</style>
 </defs>
 <g id="figure_1">
  <g id="patch_1">
   <path d="M 0 291.545625 
L 383.7 291.545625 
L 383.7 0 
L 0 0 
z
" style="fill:#ffffff;"/>
  </g>
  <g id="axes_1">
   <g id="patch_2">
    <path d="M 41.7 256.68 
L 376.5 256.68 
L 376.5 7.2 
L 41.7 7.2 
z
" style="fill:#ffffff;"/>
   </g>
   <g id="matplotlib.axis_1">
    <g id="xtick_1">
     <g id="line2d_1">
      <defs>
       <path d="M 0 0 
L 0 6 
" id="mfadd573970" style="stroke:#262626;stroke-width:1.25;"/>
      </defs>
      <g>
       <use style="fill:#262626;stroke:#262626;stroke-width:1.25;" x="56.308845" xlink:href="#mfadd573970" y="256.68"/>
      </g>
     </g>
     <g id="text_1">
      <!-- 0 -->
      <g style="fill:#262626;" transform="translate(51.308845 280.0675)scale(0.2 -0.2)">
       <defs>
        <path d="M 3.609375 32.71875 
Q 3.609375 44.046875 7.03125 52.21875 
Q 10.453125 60.40625 16.109375 64.40625 
Q 20.515625 67.578125 25.203125 67.578125 
Q 32.8125 67.578125 38.875 59.8125 
Q 46.4375 50.203125 46.4375 33.734375 
Q 46.4375 22.21875 43.109375 14.15625 
Q 39.796875 6.109375 34.640625 2.46875 
Q 29.5 -1.171875 24.703125 -1.171875 
Q 15.234375 -1.171875 8.9375 10.015625 
Q 3.609375 19.4375 3.609375 32.71875 
z
M 13.1875 31.5 
Q 13.1875 17.828125 16.546875 9.1875 
Q 19.34375 1.90625 24.859375 1.90625 
Q 27.484375 1.90625 30.3125 4.265625 
Q 33.15625 6.640625 34.625 12.203125 
Q 36.859375 20.609375 36.859375 35.890625 
Q 36.859375 47.21875 34.515625 54.78125 
Q 32.765625 60.40625 29.984375 62.75 
Q 27.984375 64.359375 25.140625 64.359375 
Q 21.828125 64.359375 19.234375 61.375 
Q 15.71875 57.328125 14.453125 48.625 
Q 13.1875 39.9375 13.1875 31.5 
z
" id="TimesNewRomanPSMT-48"/>
       </defs>
       <use xlink:href="#TimesNewRomanPSMT-48"/>
      </g>
     </g>
    </g>
    <g id="xtick_2">
     <g id="line2d_2">
      <g>
       <use style="fill:#262626;stroke:#262626;stroke-width:1.25;" x="178.176167" xlink:href="#mfadd573970" y="256.68"/>
      </g>
     </g>
     <g id="text_2">
      <!-- 2000 -->
      <g style="fill:#262626;" transform="translate(158.176167 280.0675)scale(0.2 -0.2)">
       <defs>
        <path d="M 45.84375 12.75 
L 41.21875 0 
L 2.15625 0 
L 2.15625 1.8125 
Q 19.390625 17.53125 26.421875 27.484375 
Q 33.453125 37.453125 33.453125 45.703125 
Q 33.453125 52 29.59375 56.046875 
Q 25.734375 60.109375 20.359375 60.109375 
Q 15.484375 60.109375 11.59375 57.25 
Q 7.71875 54.390625 5.859375 48.875 
L 4.046875 48.875 
Q 5.28125 57.90625 10.328125 62.734375 
Q 15.375 67.578125 22.953125 67.578125 
Q 31 67.578125 36.390625 62.40625 
Q 41.796875 57.234375 41.796875 50.203125 
Q 41.796875 45.171875 39.453125 40.140625 
Q 35.84375 32.234375 27.734375 23.390625 
Q 15.578125 10.109375 12.546875 7.375 
L 29.828125 7.375 
Q 35.109375 7.375 37.234375 7.765625 
Q 39.359375 8.15625 41.0625 9.34375 
Q 42.78125 10.546875 44.046875 12.75 
z
" id="TimesNewRomanPSMT-50"/>
       </defs>
       <use xlink:href="#TimesNewRomanPSMT-50"/>
       <use x="50" xlink:href="#TimesNewRomanPSMT-48"/>
       <use x="100" xlink:href="#TimesNewRomanPSMT-48"/>
       <use x="150" xlink:href="#TimesNewRomanPSMT-48"/>
      </g>
     </g>
    </g>
    <g id="xtick_3">
     <g id="line2d_3">
      <g>
       <use style="fill:#262626;stroke:#262626;stroke-width:1.25;" x="300.043489" xlink:href="#mfadd573970" y="256.68"/>
      </g>
     </g>
     <g id="text_3">
      <!-- 4000 -->
      <g style="fill:#262626;" transform="translate(280.043489 280.0675)scale(0.2 -0.2)">
       <defs>
        <path d="M 46.53125 24.421875 
L 46.53125 17.484375 
L 37.640625 17.484375 
L 37.640625 0 
L 29.59375 0 
L 29.59375 17.484375 
L 1.5625 17.484375 
L 1.5625 23.734375 
L 32.28125 67.578125 
L 37.640625 67.578125 
L 37.640625 24.421875 
z
M 29.59375 24.421875 
L 29.59375 57.28125 
L 6.34375 24.421875 
z
" id="TimesNewRomanPSMT-52"/>
       </defs>
       <use xlink:href="#TimesNewRomanPSMT-52"/>
       <use x="50" xlink:href="#TimesNewRomanPSMT-48"/>
       <use x="100" xlink:href="#TimesNewRomanPSMT-48"/>
       <use x="150" xlink:href="#TimesNewRomanPSMT-48"/>
      </g>
     </g>
    </g>
   </g>
   <g id="matplotlib.axis_2">
    <g id="ytick_1">
     <g id="line2d_4">
      <defs>
       <path d="M 0 0 
L -6 0 
" id="mc2f8e783a4" style="stroke:#262626;stroke-width:1.25;"/>
      </defs>
      <g>
       <use style="fill:#262626;stroke:#262626;stroke-width:1.25;" x="41.7" xlink:href="#mc2f8e783a4" y="245.34"/>
      </g>
     </g>
     <g id="text_4">
      <!-- 0.0 -->
      <g style="fill:#262626;" transform="translate(7.2 252.28375)scale(0.2 -0.2)">
       <defs>
        <path d="M 12.5 9.46875 
Q 14.796875 9.46875 16.359375 7.875 
Q 17.921875 6.296875 17.921875 4.046875 
Q 17.921875 1.8125 16.328125 0.21875 
Q 14.75 -1.375 12.5 -1.375 
Q 10.25 -1.375 8.65625 0.21875 
Q 7.078125 1.8125 7.078125 4.046875 
Q 7.078125 6.34375 8.65625 7.90625 
Q 10.25 9.46875 12.5 9.46875 
z
" id="TimesNewRomanPSMT-46"/>
       </defs>
       <use xlink:href="#TimesNewRomanPSMT-48"/>
       <use x="50" xlink:href="#TimesNewRomanPSMT-46"/>
       <use x="75" xlink:href="#TimesNewRomanPSMT-48"/>
      </g>
     </g>
    </g>
    <g id="ytick_2">
     <g id="line2d_5">
      <g>
       <use style="fill:#262626;stroke:#262626;stroke-width:1.25;" x="41.7" xlink:href="#mc2f8e783a4" y="192.406481"/>
      </g>
     </g>
     <g id="text_5">
      <!-- 0.2 -->
      <g style="fill:#262626;" transform="translate(7.2 199.350231)scale(0.2 -0.2)">
       <use xlink:href="#TimesNewRomanPSMT-48"/>
       <use x="50" xlink:href="#TimesNewRomanPSMT-46"/>
       <use x="75" xlink:href="#TimesNewRomanPSMT-50"/>
      </g>
     </g>
    </g>
    <g id="ytick_3">
     <g id="line2d_6">
      <g>
       <use style="fill:#262626;stroke:#262626;stroke-width:1.25;" x="41.7" xlink:href="#mc2f8e783a4" y="139.472962"/>
      </g>
     </g>
     <g id="text_6">
      <!-- 0.4 -->
      <g style="fill:#262626;" transform="translate(7.2 146.416712)scale(0.2 -0.2)">
       <use xlink:href="#TimesNewRomanPSMT-48"/>
       <use x="50" xlink:href="#TimesNewRomanPSMT-46"/>
       <use x="75" xlink:href="#TimesNewRomanPSMT-52"/>
      </g>
     </g>
    </g>
    <g id="ytick_4">
     <g id="line2d_7">
      <g>
       <use style="fill:#262626;stroke:#262626;stroke-width:1.25;" x="41.7" xlink:href="#mc2f8e783a4" y="86.539442"/>
      </g>
     </g>
     <g id="text_7">
      <!-- 0.6 -->
      <g style="fill:#262626;" transform="translate(7.2 93.483192)scale(0.2 -0.2)">
       <defs>
        <path d="M 44.828125 67.578125 
L 44.828125 65.765625 
Q 38.375 65.140625 34.296875 63.203125 
Q 30.21875 61.28125 26.234375 57.328125 
Q 22.265625 53.375 19.65625 48.515625 
Q 17.046875 43.65625 15.28125 36.96875 
Q 22.3125 41.796875 29.390625 41.796875 
Q 36.1875 41.796875 41.15625 36.328125 
Q 46.140625 30.859375 46.140625 22.265625 
Q 46.140625 13.96875 41.109375 7.125 
Q 35.0625 -1.171875 25.09375 -1.171875 
Q 18.3125 -1.171875 13.578125 3.328125 
Q 4.296875 12.0625 4.296875 25.984375 
Q 4.296875 34.859375 7.859375 42.859375 
Q 11.421875 50.875 18.03125 57.078125 
Q 24.65625 63.28125 30.703125 65.421875 
Q 36.765625 67.578125 42 67.578125 
z
M 14.453125 33.40625 
Q 13.578125 26.8125 13.578125 22.75 
Q 13.578125 18.0625 15.3125 12.5625 
Q 17.046875 7.078125 20.453125 3.859375 
Q 22.953125 1.5625 26.515625 1.5625 
Q 30.765625 1.5625 34.109375 5.5625 
Q 37.453125 9.578125 37.453125 17 
Q 37.453125 25.34375 34.125 31.4375 
Q 30.8125 37.546875 24.703125 37.546875 
Q 22.859375 37.546875 20.734375 36.765625 
Q 18.609375 35.984375 14.453125 33.40625 
z
" id="TimesNewRomanPSMT-54"/>
       </defs>
       <use xlink:href="#TimesNewRomanPSMT-48"/>
       <use x="50" xlink:href="#TimesNewRomanPSMT-46"/>
       <use x="75" xlink:href="#TimesNewRomanPSMT-54"/>
      </g>
     </g>
    </g>
    <g id="ytick_5">
     <g id="line2d_8">
      <g>
       <use style="fill:#262626;stroke:#262626;stroke-width:1.25;" x="41.7" xlink:href="#mc2f8e783a4" y="33.605923"/>
      </g>
     </g>
     <g id="text_8">
      <!-- 0.8 -->
      <g style="fill:#262626;" transform="translate(7.2 40.549673)scale(0.2 -0.2)">
       <defs>
        <path d="M 19.1875 33.34375 
Q 11.328125 39.796875 9.046875 43.703125 
Q 6.78125 47.609375 6.78125 51.8125 
Q 6.78125 58.25 11.765625 62.90625 
Q 16.75 67.578125 25 67.578125 
Q 33.015625 67.578125 37.890625 63.234375 
Q 42.78125 58.890625 42.78125 53.328125 
Q 42.78125 49.609375 40.140625 45.75 
Q 37.5 41.890625 29.15625 36.671875 
Q 37.75 30.03125 40.53125 26.21875 
Q 44.234375 21.234375 44.234375 15.71875 
Q 44.234375 8.734375 38.90625 3.78125 
Q 33.59375 -1.171875 24.953125 -1.171875 
Q 15.53125 -1.171875 10.25 4.734375 
Q 6.0625 9.46875 6.0625 15.09375 
Q 6.0625 19.484375 9.015625 23.796875 
Q 11.96875 28.125 19.1875 33.34375 
z
M 26.859375 38.578125 
Q 32.71875 43.84375 34.28125 46.890625 
Q 35.84375 49.953125 35.84375 53.8125 
Q 35.84375 58.9375 32.953125 61.84375 
Q 30.078125 64.75 25.09375 64.75 
Q 20.125 64.75 17 61.859375 
Q 13.875 58.984375 13.875 55.125 
Q 13.875 52.59375 15.15625 50.046875 
Q 16.453125 47.515625 18.84375 45.21875 
z
M 21.484375 31.5 
Q 17.4375 28.078125 15.484375 24.046875 
Q 13.53125 20.015625 13.53125 15.328125 
Q 13.53125 9.03125 16.96875 5.25 
Q 20.40625 1.46875 25.734375 1.46875 
Q 31 1.46875 34.171875 4.4375 
Q 37.359375 7.421875 37.359375 11.671875 
Q 37.359375 15.1875 35.5 17.96875 
Q 32.03125 23.140625 21.484375 31.5 
z
" id="TimesNewRomanPSMT-56"/>
       </defs>
       <use xlink:href="#TimesNewRomanPSMT-48"/>
       <use x="50" xlink:href="#TimesNewRomanPSMT-46"/>
       <use x="75" xlink:href="#TimesNewRomanPSMT-56"/>
      </g>
     </g>
    </g>
   </g>
   <g id="line2d_9">
    <path clip-path="url(#pd45f8cc96d)" d="M 56.918182 227.665367 
L 57.22285 187.810078 
L 57.527518 182.592737 
L 58.136855 196.483587 
L 58.441523 189.954164 
L 58.746192 203.729191 
L 59.05086 228.806534 
L 59.355528 204.06813 
L 59.660197 142.064652 
L 59.964865 184.35694 
L 60.269533 204.604236 
L 60.574201 212.027166 
L 60.87887 212.288572 
L 61.183538 213.626925 
L 61.488206 221.78672 
L 61.792875 219.433337 
L 62.097543 215.658912 
L 62.402211 218.796946 
L 62.70688 228.261057 
L 63.011548 220.775484 
L 63.316216 225.904311 
L 63.620885 224.081662 
L 63.925553 230.428086 
L 64.230221 228.618871 
L 64.534889 233.010609 
L 64.839558 225.654208 
L 65.144226 234.982172 
L 65.448894 232.32733 
L 65.753563 237.527896 
L 66.058231 236.27054 
L 66.362899 236.444275 
L 66.972236 232.867909 
L 67.276904 236.303263 
L 67.581572 235.332375 
L 67.886241 237.068996 
L 68.190909 236.79575 
L 68.495577 239.227916 
L 69.104914 237.103867 
L 69.409582 239.357883 
L 69.714251 238.569 
L 70.018919 234.720982 
L 70.323587 236.582362 
L 70.628256 236.205957 
L 70.932924 240.112881 
L 71.237592 239.479806 
L 71.54226 237.910155 
L 71.846929 241.345876 
L 72.151597 237.272787 
L 72.456265 237.303193 
L 72.760934 240.068988 
L 73.065602 232.801279 
L 73.37027 236.937863 
L 73.979607 240.334791 
L 74.284275 240.681181 
L 74.588943 241.447853 
L 74.893612 240.549991 
L 75.19828 238.470025 
L 75.502948 239.474753 
L 75.807617 241.357947 
L 76.112285 238.846063 
L 76.416953 240.156418 
L 76.721622 237.157084 
L 77.02629 242.373643 
L 77.635627 237.451486 
L 77.940295 243.231971 
L 78.244963 242.179283 
L 78.549631 242.563769 
L 78.8543 240.346664 
L 79.158968 231.572301 
L 79.463636 240.152537 
L 79.768305 240.129428 
L 80.072973 238.701128 
L 80.68231 243.307765 
L 80.986978 240.707113 
L 81.291646 241.947327 
L 81.596314 236.198237 
L 81.900983 243.013575 
L 82.205651 242.435824 
L 82.510319 238.823627 
L 82.814988 240.877817 
L 83.119656 239.532577 
L 83.424324 242.227471 
L 83.728993 243.052011 
L 84.033661 240.622133 
L 84.338329 242.71065 
L 84.642998 242.198776 
L 84.947666 243.874873 
L 85.252334 228.933497 
L 85.557002 231.510636 
L 85.861671 243.611401 
L 86.166339 240.918186 
L 86.471007 243.615929 
L 86.775676 244.112959 
L 87.080344 239.930155 
L 87.385012 242.571419 
L 87.994349 238.891404 
L 88.299017 241.746308 
L 88.603686 240.855564 
L 88.908354 242.812152 
L 89.213022 242.261075 
L 89.51769 242.16587 
L 89.822359 231.580451 
L 90.127027 229.595562 
L 90.431695 243.154399 
L 90.736364 240.432315 
L 91.041032 243.75746 
L 91.3457 243.425826 
L 91.650369 235.028934 
L 91.955037 240.538032 
L 92.259705 235.161155 
L 92.564373 244.612196 
L 92.869042 243.093437 
L 93.17371 243.751642 
L 93.478378 241.006237 
L 93.783047 244.148612 
L 94.087715 240.944867 
L 94.392383 240.15709 
L 95.00172 243.827608 
L 95.306388 242.657835 
L 95.611057 236.758582 
L 95.915725 241.092721 
L 96.220393 242.341945 
L 96.82973 242.802094 
L 97.439066 237.292872 
L 97.743735 241.158576 
L 98.048403 242.410338 
L 98.353071 240.402077 
L 98.65774 243.220709 
L 98.962408 242.912655 
L 99.267076 243.285033 
L 99.571744 244.015232 
L 99.876413 242.050179 
L 100.181081 242.144029 
L 100.485749 241.829479 
L 100.790418 244.576852 
L 101.095086 240.838265 
L 101.399754 241.821333 
L 101.704423 244.375552 
L 102.009091 242.494938 
L 102.313759 243.44085 
L 102.618428 237.292258 
L 102.923096 242.632668 
L 103.227764 242.40964 
L 103.532432 241.257816 
L 104.141769 244.704173 
L 104.446437 241.716061 
L 104.751106 243.422709 
L 105.055774 242.669305 
L 105.360442 242.613295 
L 105.665111 244.381716 
L 105.969779 242.105176 
L 106.274447 244.062162 
L 106.579115 244.383467 
L 106.883784 243.636767 
L 107.188452 242.071934 
L 107.49312 242.958956 
L 107.797789 243.204909 
L 108.102457 241.767654 
L 108.407125 243.308978 
L 108.711794 243.326271 
L 109.016462 244.619095 
L 109.32113 244.665503 
L 109.625799 242.090467 
L 109.930467 243.727359 
L 110.235135 243.825169 
L 110.539803 244.111741 
L 110.844472 243.49097 
L 111.14914 243.189802 
L 111.453808 243.538639 
L 111.758477 243.355897 
L 112.063145 244.853289 
L 112.97715 243.062044 
L 113.281818 243.737351 
L 113.586486 241.208954 
L 113.891155 244.379429 
L 114.195823 241.722407 
L 114.500491 244.019932 
L 114.80516 238.081611 
L 115.109828 245.085815 
L 115.414496 244.109701 
L 115.719165 243.531393 
L 116.023833 242.154479 
L 116.328501 241.350784 
L 116.63317 243.253762 
L 116.937838 242.808094 
L 117.242506 244.134522 
L 117.547174 243.539444 
L 117.851843 242.492257 
L 118.156511 243.337066 
L 118.461179 244.841679 
L 119.070516 243.151755 
L 119.375184 238.765438 
L 119.679853 244.655683 
L 119.984521 243.292269 
L 120.593857 245.22111 
L 120.898526 244.765546 
L 121.203194 244.645816 
L 121.507862 242.520011 
L 121.812531 243.821728 
L 122.117199 240.573388 
L 122.421867 239.502206 
L 122.726536 234.787188 
L 123.031204 243.536602 
L 123.335872 244.693596 
L 123.640541 236.326293 
L 123.945209 242.380034 
L 124.249877 244.415865 
L 124.554545 243.792291 
L 124.859214 241.30537 
L 125.163882 241.378204 
L 126.077887 245.102564 
L 126.382555 244.430684 
L 126.687224 244.844444 
L 126.991892 244.844165 
L 127.29656 243.683311 
L 127.601229 244.782756 
L 127.905897 244.346633 
L 128.210565 242.631095 
L 128.515233 244.764001 
L 128.819902 245.208842 
L 129.12457 244.039587 
L 129.429238 244.097061 
L 129.733907 238.942237 
L 130.038575 244.588137 
L 130.343243 244.317375 
L 130.647912 245.135641 
L 130.95258 243.315467 
L 131.561916 244.994269 
L 132.78059 242.98181 
L 133.085258 241.99389 
L 133.389926 245.079105 
L 133.999263 242.174864 
L 134.303931 244.310102 
L 134.6086 242.971133 
L 134.913268 242.303013 
L 135.217936 244.829074 
L 135.522604 242.44869 
L 135.827273 244.9404 
L 136.131941 242.565 
L 136.436609 244.579257 
L 136.741278 236.910783 
L 137.045946 243.758189 
L 137.350614 244.732116 
L 137.655283 243.041869 
L 137.959951 243.989497 
L 138.264619 243.602483 
L 138.569287 244.444554 
L 138.873956 244.610897 
L 139.178624 239.736068 
L 139.483292 236.815119 
L 139.787961 244.8024 
L 140.092629 244.274243 
L 140.701966 242.702605 
L 141.006634 240.241991 
L 141.311302 243.03233 
L 141.615971 243.121687 
L 141.920639 244.246871 
L 142.225307 244.011494 
L 142.529975 245.066598 
L 142.834644 243.944132 
L 143.139312 239.881838 
L 143.44398 244.311211 
L 143.748649 244.379639 
L 144.053317 237.654916 
L 144.662654 244.709799 
L 144.967322 242.233646 
L 145.27199 244.703647 
L 145.576658 243.742214 
L 145.881327 242.2356 
L 146.185995 244.185464 
L 146.490663 243.715175 
L 146.795332 244.874775 
L 147.404668 237.534672 
L 147.709337 244.894975 
L 148.014005 242.956479 
L 148.318673 244.527278 
L 148.623342 244.308238 
L 148.92801 243.558683 
L 149.232678 244.011974 
L 149.537346 245.018099 
L 149.842015 238.732013 
L 150.146683 239.028774 
L 150.451351 243.978465 
L 150.75602 243.522322 
L 151.060688 239.578757 
L 151.365356 242.727413 
L 151.670025 241.13019 
L 151.974693 244.749955 
L 152.279361 244.728955 
L 152.584029 240.103727 
L 152.888698 244.570368 
L 153.193366 245.250147 
L 153.802703 244.437784 
L 154.107371 243.591178 
L 154.716708 245.181162 
L 155.326044 244.845662 
L 155.630713 243.995881 
L 155.935381 244.687598 
L 156.240049 244.165703 
L 156.544717 240.875421 
L 156.849386 239.877103 
L 157.154054 243.630425 
L 157.458722 243.733854 
L 157.763391 245.29389 
L 158.068059 244.10632 
L 158.372727 245.186414 
L 158.677396 245.029779 
L 158.982064 243.926542 
L 159.286732 243.985196 
L 159.5914 244.270768 
L 159.896069 245.116271 
L 160.200737 245.140073 
L 160.810074 244.301225 
L 161.114742 241.986666 
L 161.41941 241.134271 
L 161.724079 244.675397 
L 162.028747 244.897085 
L 162.333415 233.175808 
L 162.942752 244.319751 
L 163.24742 245.280236 
L 163.552088 244.239634 
L 163.856757 240.362566 
L 164.161425 239.606693 
L 164.466093 245.110506 
L 164.770762 244.954325 
L 165.07543 244.625316 
L 165.380098 245.188155 
L 165.684767 244.757034 
L 165.989435 244.597978 
L 166.294103 245.203984 
L 166.598771 245.087592 
L 166.90344 245.203353 
L 167.208108 244.876664 
L 167.512776 244.889437 
L 167.817445 241.382191 
L 168.426781 245.019964 
L 168.73145 245.142337 
L 169.036118 243.797312 
L 169.340786 239.144354 
L 169.645455 244.833034 
L 170.254791 231.573126 
L 170.559459 244.38121 
L 170.864128 245.263839 
L 171.168796 244.896284 
L 171.473464 245.283786 
L 171.778133 244.851925 
L 172.082801 244.817948 
L 172.387469 239.387605 
L 172.692138 244.858655 
L 172.996806 244.044343 
L 173.301474 245.291659 
L 173.606143 244.817721 
L 173.910811 245.240212 
L 174.215479 244.373755 
L 174.824816 245.09286 
L 175.129484 232.60955 
L 175.434152 240.197513 
L 175.738821 244.622043 
L 176.043489 244.903869 
L 176.348157 244.906171 
L 176.652826 233.364126 
L 176.957494 237.684643 
L 177.262162 236.629787 
L 177.56683 241.443119 
L 177.871499 234.73333 
L 178.176167 244.372854 
L 178.480835 245.043236 
L 178.785504 238.498534 
L 179.39484 245.144911 
L 179.699509 230.389878 
L 180.004177 245.247671 
L 180.613514 245.164624 
L 180.918182 244.708781 
L 181.527518 245.245155 
L 181.832187 244.910407 
L 182.136855 245.246865 
L 182.441523 245.253435 
L 182.746192 244.942242 
L 183.05086 244.842013 
L 183.660197 245.30472 
L 183.964865 245.042418 
L 184.269533 239.050729 
L 184.574201 244.404722 
L 184.87887 245.178863 
L 185.183538 245.32322 
L 185.488206 242.475762 
L 185.792875 243.086943 
L 186.097543 244.53301 
L 186.402211 245.180203 
L 186.70688 242.769761 
L 187.011548 244.89252 
L 187.316216 245.285575 
L 187.620885 239.732567 
L 187.925553 244.972899 
L 188.534889 244.915072 
L 188.839558 244.708146 
L 189.144226 244.736485 
L 189.448894 245.21622 
L 189.753563 245.239635 
L 190.058231 244.894047 
L 190.362899 244.360934 
L 190.667568 240.05254 
L 190.972236 245.236472 
L 191.276904 244.99449 
L 191.581572 245.249616 
L 191.886241 240.356493 
L 192.190909 239.947401 
L 192.495577 245.144864 
L 192.800246 244.424338 
L 193.104914 244.602031 
L 193.409582 245.103297 
L 194.018919 245.238213 
L 194.323587 245.223788 
L 194.628256 244.726769 
L 194.932924 245.222086 
L 195.237592 245.28445 
L 195.54226 239.542885 
L 195.846929 245.172282 
L 196.151597 241.791031 
L 196.456265 241.037401 
L 196.760934 245.151411 
L 197.065602 244.943223 
L 197.37027 241.513153 
L 197.674939 242.019037 
L 197.979607 244.941507 
L 198.284275 241.500207 
L 198.588943 245.197921 
L 198.893612 241.598709 
L 199.19828 245.27932 
L 199.502948 244.812648 
L 199.807617 245.334071 
L 200.112285 241.878964 
L 200.416953 244.915882 
L 200.721622 242.771752 
L 201.330958 245.028733 
L 201.635627 243.931057 
L 201.940295 245.316101 
L 202.244963 241.610074 
L 202.549631 244.087328 
L 202.8543 244.912694 
L 203.158968 241.837138 
L 203.463636 241.782958 
L 203.768305 245.28444 
L 204.072973 245.309221 
L 204.377641 244.534353 
L 204.68231 238.312159 
L 204.986978 242.096941 
L 205.291646 244.394319 
L 205.596314 244.138717 
L 206.205651 245.329254 
L 206.510319 242.55764 
L 206.814988 244.237373 
L 207.119656 245.136011 
L 207.424324 245.322823 
L 207.728993 241.291706 
L 208.033661 241.533307 
L 208.338329 245.101137 
L 208.642998 242.089073 
L 208.947666 245.200665 
L 209.252334 245.08635 
L 209.557002 245.325099 
L 209.861671 245.281179 
L 210.166339 242.822261 
L 210.471007 245.19035 
L 210.775676 244.72823 
L 211.080344 245.099489 
L 211.385012 244.96054 
L 211.689681 241.953719 
L 211.994349 244.856521 
L 212.299017 244.71539 
L 212.603686 245.265326 
L 212.908354 241.665799 
L 213.213022 245.316789 
L 213.51769 242.526504 
L 214.127027 245.157151 
L 214.736364 245.034077 
L 215.041032 241.81356 
L 215.3457 245.337195 
L 215.650369 244.715605 
L 215.955037 242.669865 
L 216.259705 243.019458 
L 216.564373 245.288752 
L 216.869042 242.933891 
L 217.17371 245.124828 
L 217.478378 245.257637 
L 217.783047 245.134582 
L 218.087715 245.330922 
L 218.392383 244.921144 
L 218.697052 245.288039 
L 219.306388 245.264049 
L 219.611057 245.246564 
L 219.915725 244.78679 
L 220.220393 245.194467 
L 220.525061 245.185711 
L 220.82973 244.833632 
L 221.134398 244.844146 
L 221.439066 245.307757 
L 221.743735 241.897283 
L 222.048403 245.060558 
L 222.353071 243.292052 
L 222.65774 245.236052 
L 222.962408 245.25994 
L 223.267076 243.393345 
L 223.571744 245.173303 
L 223.876413 245.090161 
L 224.181081 245.278814 
L 224.485749 245.331054 
L 224.790418 245.083794 
L 225.399754 245.041585 
L 225.704423 245.305363 
L 226.009091 245.328566 
L 226.313759 245.125081 
L 226.618428 245.339127 
L 226.923096 245.311984 
L 227.227764 244.983279 
L 227.532432 244.962425 
L 227.837101 245.080884 
L 228.141769 245.333674 
L 228.446437 241.759281 
L 228.751106 245.316445 
L 229.055774 241.956439 
L 229.360442 245.143667 
L 229.665111 243.6318 
L 229.969779 244.874434 
L 230.274447 245.107441 
L 231.188452 245.34 
L 231.49312 243.580747 
L 231.797789 245.060428 
L 232.102457 245.338589 
L 232.407125 245.262015 
L 232.711794 245.333198 
L 233.016462 244.550239 
L 233.32113 245.054425 
L 233.625799 245.34 
L 233.930467 245.114621 
L 234.235135 245.075435 
L 234.539803 245.251487 
L 234.844472 244.851661 
L 235.14914 245.087469 
L 235.453808 244.840161 
L 236.063145 244.960064 
L 236.367813 243.433858 
L 236.672482 245.181237 
L 236.97715 245.258138 
L 237.281818 245.188031 
L 237.586486 245.316498 
L 238.195823 244.934121 
L 238.500491 245.021762 
L 238.80516 242.023473 
L 239.109828 245.283335 
L 239.414496 245.260348 
L 239.719165 245.078146 
L 240.023833 245.276177 
L 240.328501 243.343387 
L 240.63317 245.046287 
L 240.937838 243.972446 
L 241.242506 244.954942 
L 241.547174 245.332351 
L 241.851843 242.083959 
L 242.156511 245.335845 
L 242.461179 244.97241 
L 242.765848 243.696353 
L 243.070516 244.084788 
L 243.679853 245.275446 
L 243.984521 245.335633 
L 244.289189 244.773305 
L 244.593857 245.126626 
L 245.203194 245.185663 
L 245.507862 243.64686 
L 245.812531 245.116001 
L 246.117199 238.931589 
L 246.421867 245.05384 
L 246.726536 245.31302 
L 247.031204 245.331266 
L 247.335872 241.124772 
L 247.640541 245.144993 
L 247.945209 244.886823 
L 248.249877 243.921069 
L 248.554545 245.264162 
L 248.859214 245.062736 
L 249.163882 245.320229 
L 249.773219 245.033288 
L 250.077887 245.339619 
L 250.687224 245.117238 
L 250.991892 245.34 
L 251.905897 245.145602 
L 252.210565 243.300845 
L 252.515233 245.166283 
L 252.819902 244.274076 
L 253.12457 245.312691 
L 253.429238 244.415576 
L 253.733907 245.168644 
L 254.038575 245.005893 
L 254.343243 245.312235 
L 254.647912 245.22182 
L 254.95258 245.332907 
L 255.257248 245.148076 
L 255.561916 245.312503 
L 255.866585 243.583404 
L 256.171253 245.334733 
L 256.78059 245.336639 
L 257.085258 244.454672 
L 257.389926 242.650695 
L 257.694595 245.17621 
L 257.999263 245.166314 
L 258.303931 245.338632 
L 258.6086 245.328328 
L 258.913268 245.047753 
L 259.217936 245.262183 
L 259.522604 245.182377 
L 259.827273 245.317741 
L 260.131941 244.990495 
L 260.436609 245.31888 
L 260.741278 242.060291 
L 261.045946 242.143947 
L 261.350614 245.281722 
L 261.655283 245.107852 
L 261.959951 245.337142 
L 262.264619 243.70501 
L 262.569287 245.189016 
L 262.873956 245.172782 
L 263.178624 245.310958 
L 264.397297 245.180071 
L 264.701966 245.339407 
L 265.006634 245.20626 
L 265.311302 245.285044 
L 265.615971 245.129353 
L 265.920639 245.316365 
L 266.225307 245.183991 
L 266.529975 244.559234 
L 266.834644 245.260768 
L 267.139312 245.26607 
L 267.44398 244.62409 
L 267.748649 245.324385 
L 268.357985 245.27339 
L 268.662654 243.536217 
L 269.27199 245.236539 
L 269.576658 245.338507 
L 269.881327 245.320547 
L 270.185995 245.17522 
L 270.490663 245.200239 
L 270.795332 242.231796 
L 271.1 244.680118 
L 271.404668 244.101049 
L 271.709337 244.595942 
L 272.014005 245.339735 
L 272.318673 245.127659 
L 273.232678 245.309652 
L 274.451351 245.33792 
L 274.75602 242.421038 
L 275.060688 245.29971 
L 275.365356 245.316074 
L 275.670025 245.127422 
L 275.974693 245.338941 
L 276.279361 245.174702 
L 277.193366 245.242507 
L 277.802703 244.071756 
L 278.107371 245.328302 
L 278.412039 245.339805 
L 278.716708 244.305298 
L 279.021376 245.330393 
L 279.326044 245.266297 
L 279.935381 245.339953 
L 280.240049 242.240291 
L 280.544717 245.269942 
L 281.458722 245.34 
L 282.372727 245.318535 
L 282.677396 244.161508 
L 282.982064 245.339932 
L 284.810074 245.308361 
L 285.114742 244.710974 
L 285.41941 245.195975 
L 285.724079 245.191529 
L 286.028747 242.145345 
L 286.333415 245.316656 
L 286.638084 245.081998 
L 286.942752 245.265981 
L 287.552088 245.326105 
L 288.466093 245.339787 
L 288.770762 244.85363 
L 289.07543 245.33915 
L 289.989435 245.267477 
L 290.294103 245.256069 
L 290.598771 244.400887 
L 290.90344 245.331637 
L 291.512776 245.329413 
L 292.426781 245.338356 
L 292.73145 245.209145 
L 293.036118 245.321579 
L 293.340786 245.227802 
L 293.645455 245.333595 
L 293.950123 244.081932 
L 294.254791 245.326502 
L 294.864128 245.293504 
L 295.168796 245.339195 
L 295.473464 244.859189 
L 295.778133 241.458325 
L 296.082801 245.313529 
L 296.387469 244.313154 
L 296.692138 244.915734 
L 296.996806 244.782408 
L 297.301474 243.93702 
L 297.606143 244.288775 
L 297.910811 245.34 
L 298.215479 245.211532 
L 298.824816 245.323908 
L 299.129484 245.279403 
L 299.434152 244.585532 
L 299.738821 245.262963 
L 300.043489 245.244984 
L 300.652826 245.339991 
L 300.957494 245.208329 
L 301.262162 245.28095 
L 301.871499 244.331631 
L 302.176167 245.201621 
L 302.480835 245.318721 
L 302.785504 244.993282 
L 303.090172 245.265622 
L 303.39484 242.331992 
L 303.699509 245.339789 
L 304.004177 244.604182 
L 304.308845 245.34 
L 304.613514 244.096489 
L 304.918182 245.271574 
L 307.05086 245.336692 
L 307.660197 245.334336 
L 307.964865 244.328445 
L 308.269533 245.334733 
L 308.87887 245.328275 
L 309.183538 244.932767 
L 309.488206 245.328196 
L 310.402211 245.330869 
L 310.70688 244.139192 
L 311.011548 244.610167 
L 311.316216 245.303317 
L 311.620885 242.323868 
L 311.925553 245.335501 
L 312.230221 245.059901 
L 312.534889 245.280645 
L 315.276904 245.262749 
L 315.581572 242.31151 
L 315.886241 245.305453 
L 316.190909 245.33685 
L 316.495577 245.220295 
L 317.104914 245.335289 
L 317.409582 245.225744 
L 318.323587 245.287172 
L 318.628256 244.463156 
L 318.932924 245.334177 
L 320.456265 245.294695 
L 321.37027 245.339894 
L 321.674939 245.339977 
L 321.979607 244.591461 
L 322.284275 245.34 
L 322.893612 245.28473 
L 323.19828 245.062316 
L 323.502948 245.339725 
L 323.807617 245.005676 
L 324.112285 244.284031 
L 324.416953 245.169718 
L 324.721622 245.33206 
L 326.549631 245.339998 
L 326.8543 244.917277 
L 327.158968 245.301813 
L 328.072973 245.338134 
L 328.68231 245.338772 
L 328.986978 244.83058 
L 329.291646 245.287893 
L 329.596314 245.300698 
L 329.900983 245.044158 
L 330.205651 245.287099 
L 330.814988 245.339659 
L 331.119656 245.200544 
L 331.424324 245.319038 
L 332.947666 245.336004 
L 333.252334 244.634737 
L 333.557002 245.285303 
L 333.861671 245.242562 
L 334.166339 245.337195 
L 334.471007 244.389029 
L 334.775676 245.339595 
L 335.080344 245.337427 
L 335.385012 245.094416 
L 335.689681 245.33878 
L 335.994349 245.338955 
L 336.299017 244.892604 
L 336.908354 245.316153 
L 337.213022 244.72331 
L 337.51769 245.32142 
L 338.736364 245.308695 
L 340.869042 245.304264 
L 341.17371 244.59084 
L 341.478378 245.235472 
L 342.087715 245.339877 
L 342.392383 245.266426 
L 343.611057 245.336956 
L 343.915725 242.276178 
L 344.220393 245.176092 
L 344.525061 245.316974 
L 345.134398 245.313719 
L 346.353071 245.3206 
L 349.399754 245.339293 
L 349.704423 244.574948 
L 350.009091 245.327058 
L 352.141769 245.323644 
L 352.446437 244.939427 
L 352.751106 245.317 
L 353.360442 245.164739 
L 353.665111 245.325258 
L 353.969779 245.265884 
L 354.274447 244.485453 
L 354.579115 245.338645 
L 354.883784 245.332986 
L 355.188452 245.190156 
L 355.49312 245.339904 
L 357.32113 245.339894 
L 357.625799 244.794635 
L 357.930467 245.32105 
L 359.14914 245.34 
L 359.453808 242.381409 
L 359.758477 245.287676 
L 360.672482 245.339965 
L 360.97715 245.339999 
L 361.281818 244.934528 
L 361.281818 244.934528 
" style="fill:none;stroke:#ff0000;stroke-linecap:round;stroke-width:1.5;"/>
   </g>
   <g id="line2d_10">
    <path clip-path="url(#pd45f8cc96d)" d="M 56.918182 186.45473 
L 57.22285 162.906576 
L 57.527518 196.599494 
L 57.832187 209.230978 
L 58.136855 216.474734 
L 58.746192 191.102604 
L 59.05086 213.462769 
L 59.355528 218.236842 
L 59.660197 215.981872 
L 59.964865 202.80879 
L 60.269533 206.986135 
L 60.87887 182.604228 
L 61.183538 183.773402 
L 61.488206 205.638476 
L 61.792875 176.206307 
L 62.097543 178.595199 
L 62.70688 203.649509 
L 63.316216 196.989384 
L 63.620885 220.418951 
L 64.230221 176.962169 
L 64.534889 179.702763 
L 64.839558 164.738568 
L 65.144226 185.963356 
L 65.448894 156.231111 
L 65.753563 185.355008 
L 66.058231 161.884762 
L 66.362899 118.667043 
L 66.972236 138.767368 
L 67.276904 192.740518 
L 67.581572 152.920658 
L 67.886241 128.94207 
L 68.190909 121.047987 
L 68.495577 141.880993 
L 68.800246 130.264871 
L 69.104914 35.409734 
L 69.409582 20.364085 
L 69.714251 91.826201 
L 70.018919 100.104895 
L 70.323587 113.267351 
L 70.628256 88.039069 
L 70.932924 137.205795 
L 71.237592 131.639428 
L 71.54226 152.85089 
L 71.846929 130.972987 
L 72.151597 128.77703 
L 72.456265 193.367524 
L 72.760934 179.632382 
L 73.674939 228.680907 
L 74.284275 200.520464 
L 74.588943 234.190878 
L 74.893612 225.183789 
L 75.19828 204.624203 
L 75.502948 207.825368 
L 75.807617 221.696644 
L 76.112285 185.990299 
L 76.416953 226.526683 
L 76.721622 227.045883 
L 77.02629 211.668 
L 77.330958 229.52206 
L 77.635627 225.025221 
L 77.940295 185.952279 
L 78.244963 216.330976 
L 78.549631 206.269101 
L 78.8543 230.199757 
L 79.158968 236.500959 
L 79.768305 220.424254 
L 80.072973 239.313661 
L 80.377641 213.914129 
L 80.68231 226.100226 
L 80.986978 207.993442 
L 81.291646 220.360205 
L 81.596314 220.430834 
L 81.900983 228.254613 
L 82.205651 222.893825 
L 82.510319 220.753352 
L 82.814988 232.639459 
L 83.119656 231.0709 
L 83.424324 219.519268 
L 83.728993 238.333506 
L 84.033661 234.737853 
L 84.338329 227.307778 
L 84.642998 214.203993 
L 84.947666 207.411598 
L 85.252334 221.914379 
L 85.557002 227.718615 
L 85.861671 218.535163 
L 86.166339 238.095377 
L 86.471007 241.882725 
L 86.775676 213.818804 
L 87.080344 223.187471 
L 87.385012 237.890944 
L 87.689681 220.333598 
L 87.994349 237.406158 
L 88.299017 199.685161 
L 88.603686 240.159378 
L 88.908354 230.501086 
L 89.213022 235.232224 
L 89.51769 235.724641 
L 89.822359 241.40667 
L 90.127027 239.684888 
L 90.431695 237.278367 
L 90.736364 241.376672 
L 91.041032 239.639497 
L 91.3457 240.593663 
L 91.650369 235.328206 
L 91.955037 241.910036 
L 92.259705 240.510855 
L 92.564373 232.051182 
L 92.869042 238.671052 
L 93.17371 240.297244 
L 93.478378 240.322742 
L 93.783047 208.088092 
L 94.087715 238.655991 
L 94.392383 202.412851 
L 94.697052 215.460138 
L 95.00172 238.002527 
L 95.306388 243.184552 
L 95.611057 213.63565 
L 95.915725 237.811883 
L 96.220393 170.945864 
L 96.525061 244.833793 
L 96.82973 221.31304 
L 97.134398 218.182756 
L 97.439066 241.874597 
L 97.743735 239.753865 
L 98.048403 220.636022 
L 98.353071 221.010298 
L 98.65774 220.293425 
L 98.962408 243.191889 
L 99.267076 224.848583 
L 99.571744 244.983526 
L 99.876413 209.466652 
L 100.181081 225.167864 
L 100.485749 228.819416 
L 100.790418 241.781697 
L 101.095086 238.577565 
L 101.399754 204.409625 
L 101.704423 237.977368 
L 102.009091 242.373373 
L 102.313759 243.587498 
L 102.618428 242.213277 
L 102.923096 234.848831 
L 103.227764 242.436656 
L 103.532432 244.744653 
L 103.837101 242.646876 
L 104.141769 213.677327 
L 104.446437 243.745738 
L 104.751106 240.625129 
L 105.055774 226.553823 
L 105.360442 225.779069 
L 105.665111 231.853851 
L 105.969779 220.81334 
L 106.883784 237.666495 
L 107.188452 238.825487 
L 107.49312 223.568515 
L 107.797789 241.762884 
L 108.102457 233.212954 
L 108.407125 241.926014 
L 108.711794 244.373617 
L 109.016462 227.727772 
L 109.32113 230.175101 
L 109.625799 235.210134 
L 109.930467 243.92658 
L 110.235135 234.562122 
L 110.539803 232.212879 
L 110.844472 241.762749 
L 111.14914 219.639466 
L 111.453808 242.596597 
L 111.758477 227.571978 
L 112.063145 243.369711 
L 112.367813 236.754889 
L 112.672482 244.286465 
L 112.97715 241.133651 
L 113.281818 243.752628 
L 113.586486 226.340227 
L 113.891155 227.411395 
L 114.500491 243.393271 
L 114.80516 232.802634 
L 115.109828 236.968138 
L 115.414496 233.609403 
L 115.719165 243.157224 
L 116.023833 237.213478 
L 116.328501 243.502758 
L 116.63317 241.382065 
L 116.937838 222.324208 
L 117.242506 243.254467 
L 117.547174 244.577838 
L 117.851843 231.352239 
L 118.156511 224.988397 
L 118.461179 229.052954 
L 118.765848 245.108568 
L 119.070516 235.54875 
L 119.375184 236.656379 
L 119.679853 243.220125 
L 119.984521 233.071416 
L 120.289189 244.916286 
L 120.593857 242.068882 
L 120.898526 240.57673 
L 121.203194 236.223356 
L 121.507862 239.494942 
L 121.812531 240.749019 
L 122.117199 244.707233 
L 122.421867 239.609684 
L 122.726536 237.373029 
L 123.031204 241.22511 
L 123.335872 241.6097 
L 123.640541 243.911098 
L 124.249877 230.276796 
L 124.554545 241.217634 
L 124.859214 240.389476 
L 125.163882 244.22537 
L 125.46855 238.882401 
L 125.773219 243.869018 
L 126.077887 241.810747 
L 126.382555 244.614029 
L 126.991892 233.21851 
L 127.29656 235.944164 
L 127.601229 232.176852 
L 128.210565 241.408129 
L 128.515233 237.259235 
L 128.819902 243.077514 
L 129.12457 243.893905 
L 129.429238 240.154481 
L 129.733907 240.061436 
L 130.038575 237.743847 
L 130.343243 243.086081 
L 130.95258 241.857118 
L 131.257248 239.651547 
L 131.866585 242.151137 
L 132.171253 241.629617 
L 132.475921 243.380087 
L 132.78059 243.032563 
L 133.085258 243.154288 
L 133.389926 243.65664 
L 133.694595 238.38936 
L 133.999263 243.272804 
L 134.303931 242.210022 
L 134.6086 242.242722 
L 134.913268 244.314821 
L 135.217936 242.489463 
L 135.522604 244.856566 
L 135.827273 244.587349 
L 136.131941 243.908541 
L 136.436609 242.010358 
L 136.741278 243.139076 
L 137.045946 237.929205 
L 137.350614 245.210967 
L 137.655283 235.659723 
L 137.959951 236.320287 
L 138.264619 243.411196 
L 138.873956 236.218188 
L 139.178624 240.015095 
L 139.483292 235.20363 
L 139.787961 234.57027 
L 140.092629 242.421973 
L 140.397297 242.495585 
L 140.701966 239.834959 
L 141.006634 241.229811 
L 141.311302 240.719787 
L 141.615971 244.35161 
L 141.920639 242.199054 
L 142.225307 243.372246 
L 142.529975 241.680555 
L 142.834644 244.264675 
L 143.139312 242.355446 
L 144.053317 245.213794 
L 144.357985 245.050636 
L 144.662654 241.987785 
L 144.967322 242.707515 
L 145.27199 241.928483 
L 145.576658 244.673757 
L 145.881327 241.435111 
L 146.185995 244.269771 
L 146.490663 244.808484 
L 146.795332 244.634351 
L 147.1 239.530765 
L 147.404668 245.238606 
L 147.709337 243.967191 
L 148.014005 244.782036 
L 148.318673 245.161232 
L 148.623342 241.928494 
L 148.92801 242.379573 
L 149.232678 243.578267 
L 149.842015 244.530925 
L 150.146683 243.245139 
L 150.451351 242.755834 
L 150.75602 243.605798 
L 151.060688 234.762882 
L 151.365356 243.032047 
L 151.670025 243.741009 
L 151.974693 243.229155 
L 152.279361 243.999356 
L 152.584029 242.884851 
L 152.888698 242.968223 
L 153.193366 241.053219 
L 153.498034 244.910925 
L 153.802703 239.582813 
L 154.107371 244.146752 
L 154.412039 241.839674 
L 154.716708 243.82987 
L 155.021376 241.510002 
L 155.326044 243.921238 
L 155.935381 244.818359 
L 156.544717 239.552351 
L 156.849386 243.747626 
L 157.458722 239.58608 
L 157.763391 243.217488 
L 158.068059 244.782899 
L 158.372727 244.301478 
L 158.677396 244.44191 
L 158.982064 237.555539 
L 159.286732 241.008971 
L 159.896069 244.380336 
L 160.200737 241.735789 
L 160.505405 241.242082 
L 160.810074 245.137976 
L 161.114742 244.52884 
L 161.724079 241.171849 
L 162.028747 240.60525 
L 162.333415 244.356357 
L 162.638084 242.327202 
L 162.942752 245.258541 
L 163.24742 239.123842 
L 163.552088 244.772359 
L 163.856757 240.246979 
L 164.161425 244.847724 
L 164.466093 244.571074 
L 165.07543 243.85354 
L 165.380098 244.885965 
L 165.684767 244.672552 
L 165.989435 245.05175 
L 166.294103 244.496365 
L 166.598771 244.419116 
L 166.90344 244.900541 
L 167.208108 242.798252 
L 167.512776 245.330048 
L 167.817445 244.244086 
L 168.122113 244.968512 
L 168.73145 243.815951 
L 169.645455 245.256 
L 169.950123 240.461482 
L 170.864128 244.664397 
L 171.168796 245.156521 
L 171.473464 242.851279 
L 171.778133 239.51961 
L 172.082801 244.97802 
L 172.387469 244.414284 
L 172.692138 244.332941 
L 172.996806 244.528045 
L 173.606143 240.050612 
L 173.910811 244.372086 
L 174.215479 244.687304 
L 174.520147 244.435327 
L 174.824816 245.140367 
L 175.129484 244.593394 
L 175.434152 244.775145 
L 175.738821 243.216494 
L 176.043489 243.854234 
L 176.348157 243.391795 
L 176.652826 245.224461 
L 176.957494 245.225821 
L 177.262162 244.331467 
L 177.56683 243.905531 
L 177.871499 241.434447 
L 178.176167 245.087713 
L 178.480835 244.187255 
L 178.785504 244.36196 
L 179.090172 245.167669 
L 179.39484 243.291968 
L 179.699509 243.707363 
L 180.004177 245.281503 
L 180.308845 244.606096 
L 180.613514 244.518636 
L 180.918182 244.924883 
L 181.22285 244.058572 
L 181.527518 245.230076 
L 181.832187 245.233987 
L 182.136855 244.814527 
L 182.441523 241.994561 
L 182.746192 244.082418 
L 183.05086 243.641937 
L 183.355528 244.716011 
L 183.660197 245.335554 
L 183.964865 243.021865 
L 184.269533 245.025063 
L 184.87887 244.599964 
L 185.183538 243.685828 
L 185.488206 243.541441 
L 185.792875 243.147276 
L 186.097543 243.596903 
L 186.402211 244.886164 
L 186.70688 245.224421 
L 187.011548 241.689704 
L 187.316216 244.348804 
L 187.620885 242.992832 
L 187.925553 245.223938 
L 188.230221 245.310684 
L 189.144226 243.724965 
L 189.448894 244.745958 
L 189.753563 245.124903 
L 190.058231 244.012543 
L 190.362899 245.109308 
L 190.667568 241.567755 
L 190.972236 244.682462 
L 191.276904 244.095501 
L 191.581572 244.91196 
L 191.886241 241.677093 
L 192.190909 244.384726 
L 192.495577 241.534024 
L 192.800246 245.338446 
L 193.104914 242.546899 
L 193.409582 245.310194 
L 193.714251 244.047976 
L 194.018919 241.609478 
L 194.323587 245.169562 
L 194.628256 244.783889 
L 194.932924 244.133277 
L 195.237592 244.889877 
L 195.54226 245.181083 
L 195.846929 236.079538 
L 196.151597 244.707786 
L 196.456265 245.108741 
L 197.37027 244.611015 
L 197.674939 244.330412 
L 197.979607 245.180263 
L 198.284275 244.07781 
L 198.588943 244.729476 
L 198.893612 245.112987 
L 199.502948 242.668466 
L 199.807617 245.317609 
L 200.112285 244.368648 
L 200.416953 244.528549 
L 200.721622 244.416349 
L 201.02629 240.296171 
L 201.330958 244.805139 
L 201.635627 244.074982 
L 202.244963 243.467606 
L 202.549631 244.890518 
L 202.8543 245.339232 
L 203.158968 243.515379 
L 203.463636 245.33378 
L 203.768305 244.96338 
L 204.377641 243.607681 
L 204.68231 243.836694 
L 204.986978 245.193102 
L 205.291646 244.977703 
L 205.596314 244.553732 
L 205.900983 244.953949 
L 206.205651 244.52747 
L 206.510319 244.680994 
L 206.814988 244.594308 
L 207.119656 245.24735 
L 207.424324 245.330895 
L 207.728993 243.786638 
L 208.033661 245.198516 
L 208.338329 244.941328 
L 208.642998 245.262124 
L 208.947666 245.140593 
L 209.252334 244.769066 
L 209.557002 244.593637 
L 209.861671 244.772293 
L 210.166339 245.339751 
L 210.471007 244.59166 
L 210.775676 244.878823 
L 211.080344 244.916283 
L 211.385012 245.33521 
L 211.689681 245.170407 
L 211.994349 245.196874 
L 212.299017 244.575812 
L 212.908354 240.419956 
L 213.213022 245.278068 
L 213.51769 245.18139 
L 213.822359 243.817517 
L 214.127027 242.982351 
L 214.431695 244.922702 
L 214.736364 244.943749 
L 215.041032 243.195065 
L 215.3457 245.332457 
L 215.650369 244.5743 
L 215.955037 245.260597 
L 216.259705 244.980965 
L 216.564373 245.339667 
L 216.869042 245.149838 
L 217.17371 244.440809 
L 217.478378 245.335421 
L 217.783047 244.89248 
L 218.087715 245.26404 
L 218.392383 245.196243 
L 218.697052 244.677719 
L 219.00172 244.774278 
L 219.306388 245.302514 
L 219.611057 245.333833 
L 220.220393 244.395074 
L 220.525061 243.313122 
L 220.82973 243.212458 
L 221.134398 245.173986 
L 221.439066 244.836042 
L 221.743735 244.88576 
L 222.048403 244.490878 
L 222.353071 245.298866 
L 222.65774 245.251769 
L 222.962408 244.387417 
L 223.571744 245.338745 
L 223.876413 245.249963 
L 224.181081 244.348482 
L 224.485749 245.274362 
L 224.790418 244.774609 
L 225.095086 245.33887 
L 225.399754 244.077244 
L 225.704423 245.339889 
L 226.009091 244.657158 
L 226.313759 244.737861 
L 226.923096 244.409552 
L 227.227764 245.010043 
L 227.532432 244.537308 
L 227.837101 244.970006 
L 228.141769 244.659804 
L 228.446437 244.689444 
L 228.751106 243.32588 
L 229.055774 244.655428 
L 229.360442 245.288773 
L 229.665111 244.462372 
L 229.969779 244.899056 
L 230.274447 244.758867 
L 230.579115 241.18364 
L 230.883784 245.088437 
L 231.188452 244.119882 
L 231.49312 245.33378 
L 231.797789 244.649883 
L 232.102457 245.209784 
L 232.407125 245.229806 
L 232.711794 244.765671 
L 233.32113 245.339927 
L 233.625799 244.276036 
L 234.235135 244.935448 
L 234.539803 241.208233 
L 234.844472 245.154097 
L 235.14914 245.169813 
L 235.453808 244.504936 
L 235.758477 245.101578 
L 236.063145 245.179317 
L 236.367813 244.521005 
L 236.672482 245.337721 
L 236.97715 245.082484 
L 237.281818 244.515979 
L 237.586486 245.318165 
L 237.891155 245.083137 
L 238.195823 243.498346 
L 238.500491 239.712628 
L 238.80516 245.14178 
L 239.109828 245.181255 
L 239.414496 244.252603 
L 240.023833 245.338679 
L 240.328501 242.893873 
L 240.63317 245.053806 
L 240.937838 245.338084 
L 241.242506 244.37812 
L 241.547174 245.283626 
L 241.851843 245.084858 
L 242.156511 245.249484 
L 242.765848 244.773074 
L 243.070516 245.148172 
L 243.679853 245.043656 
L 243.984521 245.203432 
L 244.289189 244.919676 
L 244.593857 245.29892 
L 244.898526 244.16129 
L 245.203194 244.845613 
L 245.507862 244.347748 
L 245.812531 244.619012 
L 246.117199 243.693784 
L 246.421867 245.172303 
L 247.031204 245.336692 
L 247.640541 245.317715 
L 247.945209 243.04434 
L 248.249877 241.618043 
L 248.554545 244.967074 
L 248.859214 245.191445 
L 249.163882 244.707444 
L 249.46855 245.302829 
L 249.773219 245.287219 
L 250.077887 244.755085 
L 250.382555 245.195391 
L 250.687224 244.929262 
L 250.991892 245.339937 
L 251.29656 245.338105 
L 251.601229 244.970056 
L 252.210565 241.395796 
L 252.515233 245.198922 
L 252.819902 245.302878 
L 253.429238 245.086511 
L 253.733907 245.34 
L 254.038575 245.073109 
L 254.647912 245.098461 
L 254.95258 245.330895 
L 255.257248 245.333966 
L 255.561916 245.116312 
L 255.866585 245.119745 
L 256.171253 245.29236 
L 256.475921 245.307711 
L 256.78059 243.826101 
L 257.085258 245.339116 
L 257.389926 245.137923 
L 257.999263 245.280427 
L 258.303931 245.326131 
L 258.6086 245.250278 
L 258.913268 245.293346 
L 259.217936 245.121892 
L 259.522604 240.310803 
L 259.827273 245.34 
L 260.131941 245.243568 
L 260.436609 244.712738 
L 260.741278 244.900463 
L 261.045946 244.928585 
L 261.350614 245.211805 
L 261.655283 245.335739 
L 261.959951 244.741851 
L 262.264619 245.138445 
L 262.569287 245.338753 
L 262.873956 245.339964 
L 263.178624 245.024705 
L 263.787961 245.335024 
L 264.092629 245.335024 
L 264.397297 244.136678 
L 264.701966 245.113709 
L 265.006634 245.267735 
L 265.311302 244.983084 
L 265.615971 245.33341 
L 265.920639 244.268096 
L 266.225307 244.886133 
L 266.834644 245.332986 
L 267.139312 241.955274 
L 267.44398 245.171059 
L 268.662654 245.182458 
L 268.967322 245.320415 
L 269.27199 245.321182 
L 269.576658 245.081949 
L 269.881327 245.24419 
L 271.404668 245.228697 
L 271.709337 245.34 
L 272.014005 245.054159 
L 272.318673 245.255114 
L 272.623342 241.944699 
L 272.92801 244.672463 
L 273.232678 245.33431 
L 273.537346 245.046219 
L 273.842015 245.158651 
L 274.146683 244.762088 
L 274.451351 245.317768 
L 275.060688 245.323061 
L 275.365356 245.107622 
L 275.670025 245.153819 
L 275.974693 245.324755 
L 276.279361 245.33828 
L 276.584029 244.824329 
L 276.888698 245.284656 
L 277.193366 245.250086 
L 277.498034 245.010421 
L 278.412039 245.334707 
L 279.021376 245.324887 
L 279.326044 245.156345 
L 279.630713 244.691564 
L 279.935381 245.20052 
L 280.240049 245.163493 
L 280.544717 245.308456 
L 280.849386 245.311945 
L 281.154054 244.28927 
L 281.458722 244.46395 
L 282.068059 245.316842 
L 282.372727 244.932412 
L 282.677396 245.338317 
L 283.5914 244.779095 
L 283.896069 244.985345 
L 284.200737 244.832591 
L 284.505405 244.133116 
L 284.810074 244.927794 
L 285.41941 245.295175 
L 285.724079 240.713896 
L 286.028747 245.339712 
L 286.638084 245.337777 
L 286.942752 245.106277 
L 287.24742 245.325681 
L 287.856757 245.232016 
L 288.161425 245.094262 
L 288.466093 245.339995 
L 288.770762 242.331954 
L 289.07543 245.241279 
L 289.380098 245.298498 
L 289.684767 245.045452 
L 289.989435 245.34 
L 290.294103 245.104923 
L 290.598771 245.334257 
L 290.90344 241.528787 
L 291.208108 245.335739 
L 291.512776 245.319462 
L 291.817445 245.032986 
L 292.122113 244.231043 
L 292.426781 245.189139 
L 293.036118 245.300035 
L 293.340786 245.339783 
L 293.645455 244.980052 
L 293.950123 245.309996 
L 294.254791 245.316074 
L 294.559459 245.064879 
L 295.778133 245.339794 
L 296.996806 245.242132 
L 297.301474 245.201527 
L 297.606143 245.329307 
L 297.910811 244.966819 
L 298.215479 245.199733 
L 298.520147 245.154468 
L 298.824816 245.338221 
L 299.738821 245.286234 
L 301.262162 245.290961 
L 301.56683 245.339841 
L 301.871499 244.561531 
L 302.176167 245.338957 
L 303.090172 245.299199 
L 303.39484 245.176297 
L 306.441523 245.316286 
L 306.746192 245.190463 
L 307.05086 245.32719 
L 307.355528 245.1799 
L 307.660197 245.325099 
L 308.269533 245.339722 
L 308.574201 245.190198 
L 308.87887 245.29633 
L 309.183538 244.7062 
L 310.097543 245.302682 
L 311.011548 245.335104 
L 311.316216 245.10629 
L 311.620885 245.325734 
L 311.925553 244.998579 
L 312.230221 245.300906 
L 312.534889 245.162443 
L 313.144226 245.311489 
L 313.753563 245.110681 
L 314.058231 245.300829 
L 314.362899 245.305329 
L 314.667568 244.649218 
L 314.972236 245.308822 
L 315.276904 245.339909 
L 315.886241 245.228191 
L 316.495577 245.339998 
L 316.800246 245.224605 
L 317.409582 245.195657 
L 317.714251 245.064332 
L 318.018919 245.329625 
L 318.628256 245.339991 
L 318.932924 245.34 
L 319.237592 245.192202 
L 319.54226 245.339947 
L 319.846929 245.19815 
L 320.151597 245.34 
L 323.19828 245.286079 
L 323.502948 245.339444 
L 323.807617 245.186452 
L 324.112285 245.339047 
L 324.416953 245.176573 
L 324.721622 245.296859 
L 325.02629 244.953585 
L 325.330958 245.318562 
L 326.549631 245.305858 
L 326.8543 245.203899 
L 327.463636 245.337729 
L 328.072973 245.316709 
L 328.377641 245.011812 
L 328.68231 245.285743 
L 329.900983 245.287266 
L 330.205651 244.999724 
L 330.510319 245.250807 
L 331.119656 245.332351 
L 331.424324 245.335448 
L 331.728993 244.805371 
L 332.033661 245.234133 
L 332.642998 245.339996 
L 334.166339 245.30824 
L 335.385012 245.320997 
L 335.689681 245.259012 
L 335.994349 245.315307 
L 336.299017 245.163956 
L 336.603686 245.338454 
L 337.213022 245.244943 
L 337.51769 245.322188 
L 338.127027 245.34 
L 338.736364 245.339827 
L 339.650369 245.314274 
L 339.955037 242.163989 
L 340.259705 245.158173 
L 340.869042 245.295797 
L 342.087715 245.335871 
L 343.915725 245.339886 
L 344.220393 244.921841 
L 344.525061 245.332695 
L 345.134398 245.339921 
L 345.439066 242.640391 
L 345.743735 245.206343 
L 346.048403 245.310887 
L 346.353071 245.239162 
L 346.65774 245.32449 
L 346.962408 244.948651 
L 347.267076 245.270939 
L 347.571744 245.234398 
L 348.181081 245.339704 
L 349.704423 245.323961 
L 350.009091 245.086184 
L 350.313759 245.339669 
L 350.618428 245.306123 
L 350.923096 244.924472 
L 351.227764 245.233868 
L 351.532432 245.145205 
L 351.837101 245.320653 
L 352.141769 245.247366 
L 352.446437 245.339998 
L 352.751106 245.112915 
L 353.055774 245.310222 
L 353.665111 245.332801 
L 353.969779 245.327561 
L 354.274447 245.194664 
L 354.579115 245.339977 
L 356.102457 245.329281 
L 356.407125 244.948292 
L 356.711794 245.313269 
L 357.016462 245.300565 
L 357.32113 244.874185 
L 357.625799 245.28757 
L 358.844472 245.29448 
L 359.758477 245.337978 
L 361.281818 245.339047 
L 361.281818 245.339047 
" style="fill:none;stroke:#00ffff;stroke-linecap:round;stroke-width:1.5;"/>
   </g>
   <g id="line2d_11">
    <path clip-path="url(#pd45f8cc96d)" d="M 56.918182 226.918438 
L 57.22285 127.833644 
L 57.527518 136.987349 
L 57.832187 73.932307 
L 58.136855 137.323126 
L 58.441523 38.470364 
L 58.746192 75.45354 
L 59.05086 18.54 
L 59.355528 55.223312 
L 59.660197 77.589186 
L 59.964865 28.88205 
L 60.269533 87.888087 
L 60.574201 82.911459 
L 60.87887 34.218352 
L 61.183538 90.609725 
L 61.488206 88.202699 
L 61.792875 87.801064 
L 62.097543 151.807267 
L 62.402211 134.424889 
L 62.70688 129.357027 
L 63.011548 138.675809 
L 63.316216 162.147336 
L 63.620885 128.402155 
L 63.925553 154.766296 
L 64.230221 147.130191 
L 64.534889 132.716679 
L 64.839558 175.159398 
L 65.144226 137.492749 
L 65.448894 177.638233 
L 66.058231 181.404188 
L 66.362899 187.369648 
L 66.667568 182.307785 
L 66.972236 155.302268 
L 67.276904 180.24062 
L 67.581572 180.77169 
L 67.886241 149.769829 
L 68.190909 170.855152 
L 68.495577 140.177694 
L 68.800246 149.172763 
L 69.104914 151.863445 
L 69.409582 164.110799 
L 69.714251 163.119636 
L 70.323587 128.979118 
L 70.628256 160.558921 
L 70.932924 159.703959 
L 71.237592 153.256903 
L 71.54226 119.554718 
L 71.846929 134.838939 
L 72.151597 160.874002 
L 72.456265 150.670798 
L 72.760934 133.36255 
L 73.065602 173.428515 
L 73.37027 143.567244 
L 73.674939 163.848305 
L 74.284275 225.855004 
L 74.588943 205.103645 
L 74.893612 228.136527 
L 75.19828 219.160922 
L 75.807617 238.05696 
L 76.112285 211.703869 
L 76.416953 234.8045 
L 76.721622 224.873332 
L 77.02629 228.615444 
L 77.330958 238.120664 
L 77.635627 233.384944 
L 77.940295 237.06939 
L 78.244963 231.326767 
L 78.549631 230.108761 
L 78.8543 232.760645 
L 79.158968 239.486271 
L 79.463636 235.587465 
L 79.768305 243.101563 
L 80.072973 238.315199 
L 80.377641 238.415576 
L 80.68231 230.697902 
L 80.986978 228.991836 
L 81.291646 237.478731 
L 81.596314 235.830287 
L 81.900983 231.698854 
L 82.205651 234.368179 
L 82.510319 235.050083 
L 82.814988 239.707408 
L 83.119656 233.619681 
L 83.424324 235.389 
L 84.033661 240.598129 
L 84.338329 237.846816 
L 84.642998 227.44532 
L 84.947666 236.870705 
L 85.252334 237.058567 
L 85.557002 236.082996 
L 85.861671 240.071249 
L 86.166339 240.521558 
L 86.471007 236.774277 
L 86.775676 238.020658 
L 87.080344 236.852586 
L 87.385012 237.285874 
L 87.689681 236.741048 
L 87.994349 236.998381 
L 88.299017 240.648647 
L 88.603686 239.527059 
L 88.908354 239.492574 
L 89.213022 241.195623 
L 89.51769 239.253117 
L 89.822359 238.50003 
L 90.127027 242.395 
L 90.431695 236.301019 
L 90.736364 239.498127 
L 91.041032 235.480252 
L 91.3457 228.022453 
L 91.650369 238.48889 
L 91.955037 241.262215 
L 92.259705 237.727943 
L 92.869042 243.088972 
L 93.17371 241.332066 
L 93.478378 237.93947 
L 93.783047 239.367501 
L 94.087715 220.105606 
L 94.392383 242.737772 
L 94.697052 242.571037 
L 95.00172 221.270132 
L 95.306388 239.413592 
L 95.611057 237.933563 
L 96.220393 228.303181 
L 96.525061 229.517162 
L 96.82973 232.780654 
L 97.134398 230.054596 
L 97.439066 243.22061 
L 97.743735 244.678491 
L 98.048403 243.393327 
L 98.353071 239.026323 
L 98.65774 240.461624 
L 98.962408 232.009652 
L 99.267076 241.222099 
L 99.571744 226.685528 
L 99.876413 226.480902 
L 100.181081 218.44998 
L 100.485749 223.027232 
L 100.790418 229.781808 
L 101.095086 233.117876 
L 101.399754 244.740567 
L 102.009091 234.407216 
L 102.313759 231.930797 
L 102.618428 242.104218 
L 103.227764 227.671472 
L 103.532432 233.327569 
L 103.837101 226.777601 
L 104.141769 229.41508 
L 104.446437 242.787783 
L 105.055774 228.468707 
L 105.360442 231.3822 
L 105.665111 236.098942 
L 105.969779 235.408132 
L 106.274447 244.033084 
L 106.579115 231.367731 
L 106.883784 243.544876 
L 107.188452 244.451294 
L 107.49312 237.087824 
L 107.797789 237.675373 
L 108.102457 225.066885 
L 108.407125 232.026708 
L 108.711794 242.8742 
L 109.016462 235.14941 
L 109.32113 237.824555 
L 109.625799 237.004181 
L 109.930467 239.30862 
L 110.235135 232.993791 
L 110.539803 234.851503 
L 110.844472 244.899981 
L 111.14914 232.818198 
L 111.453808 244.672289 
L 111.758477 239.992407 
L 112.063145 243.632569 
L 112.367813 235.472437 
L 112.672482 243.421601 
L 112.97715 239.625962 
L 113.281818 241.224176 
L 113.586486 238.183018 
L 113.891155 236.702859 
L 114.195823 244.640613 
L 114.500491 236.073107 
L 114.80516 244.101503 
L 115.109828 237.972417 
L 115.414496 235.396451 
L 116.023833 243.34798 
L 116.328501 244.396052 
L 116.63317 239.421463 
L 116.937838 244.159474 
L 117.242506 235.139088 
L 117.547174 237.143391 
L 117.851843 242.776247 
L 118.156511 238.791438 
L 118.461179 239.063036 
L 118.765848 236.379234 
L 119.070516 244.576246 
L 119.375184 229.947582 
L 119.679853 244.458175 
L 119.984521 238.145109 
L 120.289189 240.032466 
L 120.593857 239.48076 
L 120.898526 243.42945 
L 121.203194 244.752227 
L 121.507862 239.260658 
L 121.812531 242.741364 
L 122.117199 231.710017 
L 122.421867 243.043374 
L 122.726536 243.887132 
L 123.031204 240.667889 
L 123.335872 241.591924 
L 123.640541 240.027085 
L 124.249877 243.661502 
L 124.554545 239.622775 
L 124.859214 238.116881 
L 125.163882 238.542412 
L 125.773219 245.120904 
L 126.077887 240.391365 
L 126.382555 244.034853 
L 126.687224 242.071378 
L 126.991892 241.536626 
L 127.29656 242.78777 
L 127.601229 240.245954 
L 127.905897 242.045572 
L 128.210565 242.978417 
L 128.515233 242.72079 
L 128.819902 242.612427 
L 129.12457 243.921284 
L 129.429238 241.774731 
L 130.038575 239.895413 
L 130.343243 242.233056 
L 130.647912 242.517012 
L 130.95258 243.253533 
L 131.257248 242.95909 
L 131.561916 239.67929 
L 131.866585 243.902079 
L 132.171253 239.253274 
L 132.475921 244.859254 
L 132.78059 243.358844 
L 133.085258 242.977546 
L 133.389926 241.490838 
L 133.694595 244.345916 
L 133.999263 244.033278 
L 134.303931 244.527739 
L 134.6086 244.525484 
L 134.913268 238.80817 
L 135.217936 244.822202 
L 135.522604 244.228346 
L 135.827273 243.071224 
L 136.131941 243.821139 
L 136.436609 244.867334 
L 136.741278 242.884173 
L 137.045946 241.799601 
L 137.350614 244.54714 
L 137.655283 241.986983 
L 137.959951 244.985566 
L 138.264619 244.745264 
L 138.569287 244.094669 
L 139.483292 244.996121 
L 139.787961 243.317137 
L 140.092629 243.883178 
L 140.397297 242.33897 
L 140.701966 244.593759 
L 141.006634 243.218136 
L 141.615971 242.737956 
L 141.920639 242.969361 
L 142.225307 244.424688 
L 142.529975 239.774299 
L 142.834644 243.958687 
L 143.139312 244.312793 
L 143.44398 244.166912 
L 143.748649 241.714807 
L 144.053317 243.135886 
L 144.357985 244.003754 
L 144.662654 240.714074 
L 144.967322 244.556085 
L 145.576658 244.699274 
L 145.881327 245.002985 
L 146.185995 244.986936 
L 146.490663 243.914336 
L 146.795332 240.72909 
L 147.1 244.985926 
L 147.404668 241.034953 
L 147.709337 244.493477 
L 148.014005 240.154087 
L 148.318673 244.65713 
L 148.623342 244.005868 
L 148.92801 244.456124 
L 149.232678 241.063752 
L 149.537346 243.475155 
L 149.842015 244.370741 
L 150.146683 244.499315 
L 150.451351 240.49744 
L 150.75602 241.255658 
L 151.060688 245.051912 
L 151.365356 245.100821 
L 151.670025 244.168434 
L 151.974693 244.983729 
L 152.279361 240.600048 
L 152.584029 238.012759 
L 152.888698 245.043913 
L 153.193366 244.298471 
L 153.498034 243.988278 
L 153.802703 243.403475 
L 154.107371 244.40328 
L 154.412039 244.875287 
L 154.716708 243.794749 
L 155.021376 243.35232 
L 155.326044 243.768373 
L 155.630713 243.778637 
L 155.935381 243.567337 
L 156.240049 244.356665 
L 156.849386 243.823838 
L 157.154054 243.930729 
L 157.763391 244.583824 
L 158.068059 242.238873 
L 158.372727 242.047693 
L 158.677396 244.378343 
L 158.982064 242.341771 
L 159.286732 244.410128 
L 159.5914 243.294424 
L 159.896069 244.654599 
L 160.505405 241.521519 
L 160.810074 244.185373 
L 161.114742 244.918891 
L 161.41941 244.167216 
L 161.724079 244.057125 
L 162.028747 241.618565 
L 162.333415 244.153221 
L 162.638084 244.837897 
L 162.942752 244.900408 
L 163.24742 244.322907 
L 163.856757 244.745276 
L 164.161425 244.623067 
L 164.466093 243.62823 
L 165.07543 244.25396 
L 165.684767 244.994322 
L 165.989435 245.286397 
L 166.294103 242.938172 
L 166.90344 244.272109 
L 167.208108 244.615423 
L 167.512776 240.867118 
L 167.817445 244.178674 
L 168.122113 245.15895 
L 168.426781 240.861901 
L 168.73145 244.378693 
L 169.036118 243.726201 
L 169.340786 244.344187 
L 169.645455 244.01373 
L 169.950123 244.826949 
L 170.254791 244.278095 
L 170.559459 244.070737 
L 170.864128 242.274844 
L 171.168796 244.971756 
L 171.473464 245.041388 
L 172.387469 244.234884 
L 172.692138 244.573025 
L 172.996806 244.585115 
L 173.301474 244.921496 
L 173.606143 244.572926 
L 173.910811 245.214732 
L 174.215479 244.348585 
L 174.520147 245.096771 
L 174.824816 244.959301 
L 175.129484 244.431433 
L 175.434152 244.38796 
L 175.738821 244.543187 
L 176.043489 242.68725 
L 176.348157 244.828967 
L 176.652826 241.348961 
L 176.957494 245.164299 
L 177.262162 244.517945 
L 177.56683 244.527476 
L 177.871499 245.306235 
L 178.176167 244.49146 
L 178.480835 244.427583 
L 178.785504 241.806929 
L 179.090172 244.847383 
L 179.39484 244.012188 
L 179.699509 245.308815 
L 180.004177 245.084917 
L 180.308845 245.160576 
L 180.613514 244.604748 
L 181.22285 245.039007 
L 181.527518 244.475979 
L 182.136855 245.208257 
L 182.746192 245.249957 
L 183.05086 243.763651 
L 183.355528 241.319042 
L 183.660197 244.837132 
L 183.964865 244.682239 
L 184.574201 244.841746 
L 184.87887 244.557063 
L 185.183538 244.882125 
L 185.488206 244.91754 
L 185.792875 244.528365 
L 186.097543 244.600604 
L 186.402211 244.109986 
L 186.70688 244.26328 
L 187.011548 244.215321 
L 187.316216 245.225399 
L 187.620885 245.053517 
L 187.925553 245.332272 
L 188.534889 243.531106 
L 188.839558 244.671686 
L 189.144226 244.58594 
L 189.448894 245.252638 
L 189.753563 244.573144 
L 190.058231 245.002752 
L 190.362899 244.441481 
L 190.667568 244.93946 
L 190.972236 244.854618 
L 191.276904 245.161208 
L 191.581572 244.748076 
L 191.886241 244.701586 
L 192.190909 244.887421 
L 192.495577 242.496015 
L 192.800246 238.696843 
L 193.104914 244.514599 
L 193.409582 245.326846 
L 194.018919 244.806728 
L 194.323587 242.359563 
L 194.628256 244.623547 
L 194.932924 244.515652 
L 195.237592 244.773363 
L 195.54226 244.336157 
L 195.846929 244.864118 
L 196.151597 245.089007 
L 196.456265 241.513782 
L 196.760934 244.005141 
L 197.065602 244.889534 
L 197.37027 245.271194 
L 197.674939 245.290506 
L 197.979607 244.389696 
L 198.284275 245.190648 
L 198.588943 245.339994 
L 198.893612 245.081877 
L 199.19828 244.60224 
L 199.502948 244.917532 
L 199.807617 244.733911 
L 200.112285 239.14898 
L 200.416953 244.369807 
L 200.721622 244.511694 
L 201.02629 245.169173 
L 201.330958 244.648298 
L 201.635627 245.217745 
L 201.940295 245.236515 
L 202.244963 244.970088 
L 202.549631 245.134134 
L 202.8543 244.998579 
L 203.158968 244.598763 
L 203.463636 244.638631 
L 203.768305 245.183022 
L 204.072973 244.59472 
L 204.377641 245.232021 
L 204.68231 245.333833 
L 204.986978 244.206203 
L 205.291646 244.665193 
L 205.596314 243.769501 
L 205.900983 245.312163 
L 206.205651 243.773168 
L 206.510319 245.030018 
L 207.119656 245.335924 
L 208.033661 245.146784 
L 208.338329 244.582697 
L 208.642998 245.295837 
L 208.947666 244.819067 
L 209.557002 244.987992 
L 209.861671 244.70454 
L 210.166339 244.686271 
L 210.775676 245.117912 
L 211.080344 244.913666 
L 211.385012 245.313719 
L 211.689681 245.155609 
L 211.994349 245.336453 
L 212.299017 244.955135 
L 212.603686 245.315942 
L 212.908354 245.087263 
L 213.51769 245.313517 
L 213.822359 244.752056 
L 214.127027 245.222279 
L 214.431695 243.920708 
L 214.736364 244.942583 
L 215.041032 244.986616 
L 215.3457 244.680978 
L 215.650369 244.025591 
L 215.955037 245.266422 
L 216.259705 245.280184 
L 216.564373 244.670391 
L 216.869042 244.608388 
L 217.478378 245.227781 
L 217.783047 245.326872 
L 218.087715 244.982699 
L 218.392383 245.187282 
L 219.306388 245.139791 
L 219.611057 245.173259 
L 219.915725 244.956202 
L 220.220393 245.261732 
L 220.525061 244.720449 
L 221.134398 245.011801 
L 221.439066 245.269307 
L 221.743735 243.77239 
L 222.353071 245.338981 
L 222.65774 245.183337 
L 222.962408 245.184921 
L 223.267076 245.34 
L 223.571744 244.972112 
L 223.876413 245.226401 
L 224.485749 244.950939 
L 225.095086 245.051512 
L 225.399754 245.111802 
L 225.704423 245.051512 
L 226.009091 241.343519 
L 226.313759 244.952113 
L 226.618428 245.214018 
L 227.227764 245.312155 
L 227.532432 244.977109 
L 227.837101 245.227977 
L 228.141769 244.884772 
L 228.446437 245.250144 
L 228.751106 244.403077 
L 229.055774 244.913144 
L 229.360442 245.206015 
L 229.665111 242.240637 
L 229.969779 245.325655 
L 230.274447 244.34199 
L 230.579115 245.29953 
L 230.883784 244.721364 
L 231.188452 245.296859 
L 231.49312 245.187551 
L 231.797789 244.690011 
L 232.407125 245.313851 
L 232.711794 244.887418 
L 233.016462 241.931957 
L 233.32113 245.151292 
L 233.625799 245.092006 
L 234.235135 245.181331 
L 234.539803 244.734067 
L 235.14914 245.105389 
L 235.453808 244.330242 
L 235.758477 245.303675 
L 236.063145 245.13235 
L 236.367813 245.226689 
L 236.97715 244.972877 
L 237.586486 245.325602 
L 238.195823 245.319568 
L 238.500491 245.071273 
L 238.80516 245.133196 
L 239.109828 244.743014 
L 239.414496 245.286393 
L 240.328501 244.873964 
L 240.63317 244.821867 
L 240.937838 245.249748 
L 241.242506 244.074446 
L 241.547174 244.905945 
L 241.851843 245.324808 
L 242.156511 245.334071 
L 242.461179 244.893172 
L 242.765848 245.33806 
L 243.070516 244.582218 
L 243.375184 245.075421 
L 243.679853 245.330604 
L 243.984521 244.633338 
L 244.289189 245.148512 
L 244.593857 244.934699 
L 244.898526 245.334336 
L 245.203194 244.63651 
L 245.507862 245.239698 
L 245.812531 244.635685 
L 246.117199 245.314036 
L 246.421867 245.070696 
L 246.726536 242.086554 
L 247.031204 244.998579 
L 247.640541 245.307711 
L 247.945209 245.091285 
L 248.249877 245.326528 
L 248.554545 245.201963 
L 249.163882 245.326423 
L 249.46855 245.110605 
L 249.773219 244.62979 
L 250.077887 245.339989 
L 252.210565 245.082652 
L 252.515233 242.432226 
L 252.819902 245.075175 
L 253.12457 245.332722 
L 253.429238 242.722364 
L 253.733907 244.874185 
L 254.343243 245.171971 
L 254.647912 245.180018 
L 254.95258 244.805371 
L 255.257248 245.119003 
L 256.171253 245.323988 
L 256.78059 245.135147 
L 257.085258 244.829192 
L 257.389926 245.327005 
L 257.694595 245.169942 
L 258.6086 245.33026 
L 258.913268 244.952681 
L 259.217936 245.334839 
L 259.522604 245.323485 
L 259.827273 245.046219 
L 260.131941 242.984368 
L 260.436609 245.323855 
L 260.741278 244.808713 
L 261.045946 245.322241 
L 261.350614 242.780413 
L 261.655283 245.147322 
L 261.959951 245.337195 
L 262.264619 245.328011 
L 262.569287 245.088566 
L 262.873956 245.261129 
L 263.178624 245.269549 
L 263.483292 242.607182 
L 263.787961 244.834485 
L 264.092629 245.316048 
L 264.701966 245.254248 
L 265.006634 242.204473 
L 265.311302 245.314221 
L 265.615971 245.33386 
L 265.920639 243.188252 
L 266.225307 245.168102 
L 266.529975 245.335871 
L 266.834644 242.40219 
L 267.139312 245.114764 
L 267.44398 245.294734 
L 268.053317 245.310357 
L 268.357985 245.107424 
L 268.967322 245.268804 
L 269.576658 245.306123 
L 269.881327 245.194168 
L 270.490663 245.325258 
L 271.1 245.151292 
L 271.404668 245.336745 
L 272.014005 245.324411 
L 272.318673 243.607132 
L 272.623342 244.982915 
L 272.92801 243.769207 
L 273.232678 245.260864 
L 273.537346 245.110269 
L 273.842015 245.322214 
L 275.060688 245.091212 
L 275.974693 245.33981 
L 276.279361 245.334548 
L 276.888698 245.069733 
L 277.193366 245.314116 
L 277.498034 245.339627 
L 277.802703 245.105867 
L 278.107371 243.929322 
L 278.412039 245.292095 
L 279.630713 245.198932 
L 279.935381 244.797431 
L 280.240049 245.277115 
L 280.544717 245.141124 
L 281.154054 245.262452 
L 281.458722 244.710091 
L 281.763391 245.311151 
L 282.068059 245.254777 
L 282.372727 245.3206 
L 282.677396 245.227252 
L 282.982064 245.339762 
L 283.286732 245.261394 
L 284.200737 245.329943 
L 284.505405 244.829192 
L 284.810074 245.307739 
L 285.114742 244.928117 
L 285.41941 245.275436 
L 285.724079 245.152828 
L 286.942752 245.292738 
L 287.24742 244.085476 
L 287.552088 244.900652 
L 287.856757 245.278332 
L 288.770762 245.339616 
L 289.07543 244.911238 
L 289.380098 245.302959 
L 289.684767 244.90335 
L 289.989435 245.3373 
L 290.294103 244.825324 
L 290.598771 245.327084 
L 291.817445 245.338145 
L 292.122113 245.180935 
L 292.426781 245.328831 
L 292.73145 245.282741 
L 293.036118 244.035189 
L 293.340786 245.302417 
L 293.645455 245.304005 
L 293.950123 244.421693 
L 294.254791 245.274627 
L 294.559459 245.286723 
L 294.864128 244.410993 
L 295.168796 245.317609 
L 295.473464 242.031655 
L 295.778133 245.28389 
L 296.082801 245.152351 
L 296.387469 245.339998 
L 296.692138 245.199462 
L 297.301474 244.293102 
L 297.606143 245.172201 
L 298.215479 245.34 
L 298.520147 245.177229 
L 298.824816 245.332748 
L 299.129484 244.42556 
L 299.434152 245.336348 
L 300.043489 245.053606 
L 300.348157 245.293683 
L 301.262162 245.237575 
L 301.56683 245.334548 
L 301.871499 244.152575 
L 302.176167 245.301359 
L 302.480835 245.193639 
L 303.090172 245.305326 
L 303.699509 245.259806 
L 304.308845 245.337793 
L 304.613514 245.155262 
L 305.22285 245.295536 
L 305.527518 245.274098 
L 305.832187 245.085125 
L 306.136855 245.307711 
L 306.441523 245.238897 
L 306.746192 245.333701 
L 307.05086 244.593637 
L 307.355528 245.339954 
L 307.660197 244.980052 
L 308.574201 245.327931 
L 308.87887 245.164525 
L 309.183538 244.853529 
L 309.488206 245.329784 
L 310.70688 245.308097 
L 311.316216 245.33026 
L 311.620885 244.614811 
L 311.925553 245.299771 
L 312.839558 245.337504 
L 313.144226 245.290479 
L 313.448894 242.491827 
L 313.753563 245.278634 
L 314.362899 245.333119 
L 314.972236 245.145822 
L 315.276904 245.337009 
L 315.581572 244.736425 
L 315.886241 245.310603 
L 316.800246 245.339967 
L 317.104914 245.159232 
L 317.409582 245.329546 
L 318.323587 245.29612 
L 318.628256 244.898005 
L 318.932924 245.332854 
L 319.54226 245.323696 
L 319.846929 244.828908 
L 320.151597 244.757731 
L 320.456265 245.338973 
L 323.502948 245.315333 
L 323.807617 245.003984 
L 324.112285 245.29633 
L 325.940295 245.335474 
L 326.244963 244.656283 
L 326.549631 245.254248 
L 326.8543 245.337883 
L 327.158968 245.204958 
L 327.463636 245.330445 
L 327.768305 244.903298 
L 328.072973 245.339304 
L 329.291646 245.265271 
L 329.596314 244.890583 
L 329.900983 245.334654 
L 331.119656 245.18067 
L 331.728993 245.128266 
L 332.033661 245.321553 
L 332.338329 245.051512 
L 332.642998 245.272245 
L 333.557002 245.049304 
L 333.861671 245.279675 
L 334.471007 245.31221 
L 335.080344 245.197344 
L 335.385012 244.982699 
L 335.689681 245.299506 
L 335.994349 245.067392 
L 336.299017 245.336348 
L 336.603686 245.286802 
L 336.908354 244.635984 
L 337.213022 245.323617 
L 338.127027 245.308769 
L 338.431695 245.131177 
L 339.3457 245.170083 
L 339.650369 244.919179 
L 339.955037 244.953585 
L 340.259705 245.114239 
L 340.564373 244.985222 
L 340.869042 245.339672 
L 341.17371 245.262515 
L 341.478378 245.338333 
L 341.783047 245.274098 
L 342.392383 245.29183 
L 342.697052 245.205549 
L 343.00172 245.335474 
L 343.611057 245.309563 
L 343.915725 242.243389 
L 344.220393 245.326317 
L 344.82973 245.324332 
L 345.134398 245.160555 
L 345.439066 245.301888 
L 345.743735 245.305064 
L 346.048403 245.011812 
L 346.353071 245.327402 
L 349.095086 245.338618 
L 349.399754 244.879478 
L 349.704423 245.339977 
L 350.009091 245.337787 
L 350.313759 244.972112 
L 350.618428 245.339888 
L 350.923096 244.980052 
L 351.227764 245.28839 
L 353.665111 245.339074 
L 353.969779 245.198403 
L 354.274447 245.337195 
L 355.797789 245.338751 
L 356.102457 245.142558 
L 356.407125 245.339996 
L 357.32113 245.327905 
L 357.625799 244.966639 
L 357.930467 245.32719 
L 358.235135 245.335712 
L 358.539803 244.874185 
L 358.844472 245.327772 
L 359.14914 245.303211 
L 359.453808 244.493064 
L 360.063145 245.339877 
L 360.672482 245.328434 
L 360.97715 245.096506 
L 361.281818 245.131177 
L 361.281818 245.131177 
" style="fill:none;stroke:#000000;stroke-linecap:round;stroke-width:1.5;"/>
   </g>
   <g id="patch_3">
    <path d="M 41.7 256.68 
L 41.7 7.2 
" style="fill:none;stroke:#262626;stroke-linecap:square;stroke-linejoin:miter;stroke-width:1.25;"/>
   </g>
   <g id="patch_4">
    <path d="M 376.5 256.68 
L 376.5 7.2 
" style="fill:none;stroke:#262626;stroke-linecap:square;stroke-linejoin:miter;stroke-width:1.25;"/>
   </g>
   <g id="patch_5">
    <path d="M 41.7 256.68 
L 376.5 256.68 
" style="fill:none;stroke:#262626;stroke-linecap:square;stroke-linejoin:miter;stroke-width:1.25;"/>
   </g>
   <g id="patch_6">
    <path d="M 41.7 7.2 
L 376.5 7.2 
" style="fill:none;stroke:#262626;stroke-linecap:square;stroke-linejoin:miter;stroke-width:1.25;"/>
   </g>
   <g id="legend_1">
    <g id="patch_7">
     <path d="M 259.549375 169.357187 
L 363.530625 169.357187 
Q 367.530625 169.357187 367.530625 165.357187 
L 367.530625 102.522812 
Q 367.530625 98.522812 363.530625 98.522812 
L 259.549375 98.522812 
Q 255.549375 98.522812 255.549375 102.522812 
L 255.549375 165.357187 
Q 255.549375 169.357187 259.549375 169.357187 
z
" style="fill:#4c4c4c;opacity:0.5;stroke:#4c4c4c;stroke-linejoin:miter;"/>
    </g>
    <g id="patch_8">
     <path d="M 257.549375 167.357187 
L 361.530625 167.357187 
Q 365.530625 167.357187 365.530625 163.357187 
L 365.530625 100.522812 
Q 365.530625 96.522812 361.530625 96.522812 
L 257.549375 96.522812 
Q 253.549375 96.522812 253.549375 100.522812 
L 253.549375 163.357187 
Q 253.549375 167.357187 257.549375 167.357187 
z
" style="fill:#ffffff;stroke:#cccccc;stroke-linejoin:miter;"/>
    </g>
    <g id="line2d_12">
     <path d="M 257.549375 107.522812 
L 275.549375 107.522812 
" style="fill:none;stroke:#ff0000;stroke-linecap:round;stroke-width:1.5;"/>
    </g>
    <g id="line2d_13"/>
    <g id="text_9">
     <!-- BRNES -->
     <g style="fill:#262626;" transform="translate(281.549375 114.522812)scale(0.2 -0.2)">
      <defs>
       <path d="M 46.1875 33.796875 
Q 53.078125 32.328125 56.5 29.109375 
Q 61.234375 24.609375 61.234375 18.109375 
Q 61.234375 13.1875 58.109375 8.671875 
Q 54.984375 4.15625 49.53125 2.078125 
Q 44.09375 0 32.90625 0 
L 1.65625 0 
L 1.65625 1.8125 
L 4.15625 1.8125 
Q 8.296875 1.8125 10.109375 4.4375 
Q 11.234375 6.15625 11.234375 11.71875 
L 11.234375 54.5 
Q 11.234375 60.640625 9.8125 62.25 
Q 7.90625 64.40625 4.15625 64.40625 
L 1.65625 64.40625 
L 1.65625 66.21875 
L 30.28125 66.21875 
Q 38.28125 66.21875 43.109375 65.046875 
Q 50.4375 63.28125 54.296875 58.8125 
Q 58.15625 54.34375 58.15625 48.53125 
Q 58.15625 43.5625 55.125 39.625 
Q 52.09375 35.6875 46.1875 33.796875 
z
M 20.609375 36.421875 
Q 22.40625 36.078125 24.71875 35.90625 
Q 27.046875 35.75 29.828125 35.75 
Q 36.96875 35.75 40.546875 37.28125 
Q 44.140625 38.8125 46.046875 41.984375 
Q 47.953125 45.171875 47.953125 48.921875 
Q 47.953125 54.734375 43.21875 58.828125 
Q 38.484375 62.9375 29.390625 62.9375 
Q 24.515625 62.9375 20.609375 61.859375 
z
M 20.609375 4.78125 
Q 26.265625 3.46875 31.78125 3.46875 
Q 40.625 3.46875 45.265625 7.4375 
Q 49.90625 11.421875 49.90625 17.28125 
Q 49.90625 21.140625 47.796875 24.703125 
Q 45.703125 28.265625 40.96875 30.3125 
Q 36.234375 32.375 29.25 32.375 
Q 26.21875 32.375 24.0625 32.265625 
Q 21.921875 32.171875 20.609375 31.9375 
z
" id="TimesNewRomanPSMT-66"/>
       <path d="M 67.578125 0 
L 49.90625 0 
L 27.484375 30.953125 
Q 25 30.859375 23.4375 30.859375 
Q 22.796875 30.859375 22.0625 30.875 
Q 21.34375 30.90625 20.5625 30.953125 
L 20.5625 11.71875 
Q 20.5625 5.46875 21.921875 3.953125 
Q 23.78125 1.8125 27.484375 1.8125 
L 30.078125 1.8125 
L 30.078125 0 
L 1.703125 0 
L 1.703125 1.8125 
L 4.203125 1.8125 
Q 8.40625 1.8125 10.203125 4.546875 
Q 11.234375 6.0625 11.234375 11.71875 
L 11.234375 54.5 
Q 11.234375 60.75 9.859375 62.25 
Q 7.953125 64.40625 4.203125 64.40625 
L 1.703125 64.40625 
L 1.703125 66.21875 
L 25.828125 66.21875 
Q 36.375 66.21875 41.375 64.671875 
Q 46.390625 63.140625 49.875 59.015625 
Q 53.375 54.890625 53.375 49.171875 
Q 53.375 43.0625 49.390625 38.5625 
Q 45.40625 34.078125 37.0625 32.234375 
L 50.734375 13.234375 
Q 55.421875 6.6875 58.78125 4.53125 
Q 62.15625 2.390625 67.578125 1.8125 
z
M 20.5625 34.03125 
Q 21.484375 34.03125 22.171875 34 
Q 22.859375 33.984375 23.296875 33.984375 
Q 32.765625 33.984375 37.578125 38.078125 
Q 42.390625 42.1875 42.390625 48.53125 
Q 42.390625 54.734375 38.5 58.609375 
Q 34.625 62.5 28.21875 62.5 
Q 25.390625 62.5 20.5625 61.578125 
z
" id="TimesNewRomanPSMT-82"/>
       <path d="M -1.3125 66.21875 
L 16.65625 66.21875 
L 57.125 16.546875 
L 57.125 54.734375 
Q 57.125 60.84375 55.765625 62.359375 
Q 53.953125 64.40625 50.046875 64.40625 
L 47.75 64.40625 
L 47.75 66.21875 
L 70.796875 66.21875 
L 70.796875 64.40625 
L 68.453125 64.40625 
Q 64.265625 64.40625 62.5 61.859375 
Q 61.421875 60.296875 61.421875 54.734375 
L 61.421875 -1.078125 
L 59.671875 -1.078125 
L 16.015625 52.25 
L 16.015625 11.46875 
Q 16.015625 5.375 17.328125 3.859375 
Q 19.1875 1.8125 23.046875 1.8125 
L 25.390625 1.8125 
L 25.390625 0 
L 2.34375 0 
L 2.34375 1.8125 
L 4.640625 1.8125 
Q 8.890625 1.8125 10.640625 4.34375 
Q 11.71875 5.90625 11.71875 11.46875 
L 11.71875 57.515625 
Q 8.84375 60.890625 7.34375 61.953125 
Q 5.859375 63.03125 2.984375 63.96875 
Q 1.5625 64.40625 -1.3125 64.40625 
z
" id="TimesNewRomanPSMT-78"/>
       <path d="M 20.90625 62.59375 
L 20.90625 36.421875 
L 35.453125 36.421875 
Q 41.109375 36.421875 43.015625 38.140625 
Q 45.5625 40.375 45.84375 46.046875 
L 47.65625 46.046875 
L 47.65625 23 
L 45.84375 23 
Q 45.171875 27.828125 44.484375 29.203125 
Q 43.609375 30.90625 41.59375 31.875 
Q 39.59375 32.859375 35.453125 32.859375 
L 20.90625 32.859375 
L 20.90625 11.03125 
Q 20.90625 6.640625 21.296875 5.6875 
Q 21.6875 4.734375 22.65625 4.171875 
Q 23.640625 3.609375 26.375 3.609375 
L 37.59375 3.609375 
Q 43.21875 3.609375 45.75 4.390625 
Q 48.296875 5.171875 50.640625 7.46875 
Q 53.65625 10.5 56.84375 16.609375 
L 58.796875 16.609375 
L 53.078125 0 
L 2.046875 0 
L 2.046875 1.8125 
L 4.390625 1.8125 
Q 6.734375 1.8125 8.84375 2.9375 
Q 10.40625 3.71875 10.96875 5.28125 
Q 11.53125 6.84375 11.53125 11.671875 
L 11.53125 54.6875 
Q 11.53125 60.984375 10.25 62.453125 
Q 8.5 64.40625 4.390625 64.40625 
L 2.046875 64.40625 
L 2.046875 66.21875 
L 53.078125 66.21875 
L 53.8125 51.703125 
L 51.90625 51.703125 
Q 50.875 56.9375 49.625 58.890625 
Q 48.390625 60.84375 45.953125 61.859375 
Q 44 62.59375 39.0625 62.59375 
z
" id="TimesNewRomanPSMT-69"/>
       <path d="M 45.84375 67.71875 
L 45.84375 44.828125 
L 44.046875 44.828125 
Q 43.171875 51.421875 40.890625 55.328125 
Q 38.625 59.234375 34.421875 61.515625 
Q 30.21875 63.8125 25.734375 63.8125 
Q 20.65625 63.8125 17.328125 60.71875 
Q 14.015625 57.625 14.015625 53.65625 
Q 14.015625 50.640625 16.109375 48.140625 
Q 19.140625 44.484375 30.515625 38.375 
Q 39.796875 33.40625 43.1875 30.734375 
Q 46.578125 28.078125 48.40625 24.453125 
Q 50.25 20.84375 50.25 16.890625 
Q 50.25 9.375 44.40625 3.921875 
Q 38.578125 -1.515625 29.390625 -1.515625 
Q 26.515625 -1.515625 23.96875 -1.078125 
Q 22.46875 -0.828125 17.703125 0.703125 
Q 12.9375 2.25 11.671875 2.25 
Q 10.453125 2.25 9.734375 1.515625 
Q 9.03125 0.78125 8.6875 -1.515625 
L 6.890625 -1.515625 
L 6.890625 21.1875 
L 8.6875 21.1875 
Q 9.96875 14.0625 12.109375 10.515625 
Q 14.265625 6.984375 18.671875 4.640625 
Q 23.09375 2.296875 28.375 2.296875 
Q 34.46875 2.296875 38 5.515625 
Q 41.546875 8.734375 41.546875 13.140625 
Q 41.546875 15.578125 40.203125 18.0625 
Q 38.875 20.5625 36.03125 22.703125 
Q 34.125 24.171875 25.625 28.921875 
Q 17.140625 33.6875 13.546875 36.515625 
Q 9.96875 39.359375 8.109375 42.765625 
Q 6.25 46.1875 6.25 50.296875 
Q 6.25 57.421875 11.71875 62.5625 
Q 17.1875 67.71875 25.640625 67.71875 
Q 30.90625 67.71875 36.8125 65.140625 
Q 39.546875 63.921875 40.671875 63.921875 
Q 41.9375 63.921875 42.75 64.671875 
Q 43.5625 65.4375 44.046875 67.71875 
z
" id="TimesNewRomanPSMT-83"/>
      </defs>
      <use xlink:href="#TimesNewRomanPSMT-66"/>
      <use x="66.699219" xlink:href="#TimesNewRomanPSMT-82"/>
      <use x="133.398438" xlink:href="#TimesNewRomanPSMT-78"/>
      <use x="205.615234" xlink:href="#TimesNewRomanPSMT-69"/>
      <use x="266.699219" xlink:href="#TimesNewRomanPSMT-83"/>
     </g>
    </g>
    <g id="line2d_14">
     <path d="M 257.549375 129.800937 
L 275.549375 129.800937 
" style="fill:none;stroke:#00ffff;stroke-linecap:round;stroke-width:1.5;"/>
    </g>
    <g id="line2d_15"/>
    <g id="text_10">
     <!-- AdhocTD -->
     <g style="fill:#262626;" transform="translate(281.549375 136.800937)scale(0.2 -0.2)">
      <defs>
       <path d="M 45.75 22.171875 
L 20.125 22.171875 
L 15.625 11.71875 
Q 13.96875 7.859375 13.96875 5.953125 
Q 13.96875 4.4375 15.40625 3.296875 
Q 16.84375 2.15625 21.625 1.8125 
L 21.625 0 
L 0.78125 0 
L 0.78125 1.8125 
Q 4.9375 2.546875 6.15625 3.71875 
Q 8.640625 6.0625 11.671875 13.234375 
L 34.96875 67.71875 
L 36.671875 67.71875 
L 59.71875 12.640625 
Q 62.5 6 64.765625 4.015625 
Q 67.046875 2.046875 71.09375 1.8125 
L 71.09375 0 
L 44.96875 0 
L 44.96875 1.8125 
Q 48.921875 2 50.3125 3.125 
Q 51.703125 4.25 51.703125 5.859375 
Q 51.703125 8.015625 49.75 12.640625 
z
M 44.390625 25.78125 
L 33.15625 52.546875 
L 21.625 25.78125 
z
" id="TimesNewRomanPSMT-65"/>
       <path d="M 34.71875 5.03125 
Q 31.453125 1.609375 28.328125 0.109375 
Q 25.203125 -1.375 21.578125 -1.375 
Q 14.265625 -1.375 8.796875 4.75 
Q 3.328125 10.890625 3.328125 20.515625 
Q 3.328125 30.125 9.375 38.109375 
Q 15.4375 46.09375 24.953125 46.09375 
Q 30.859375 46.09375 34.71875 42.328125 
L 34.71875 50.59375 
Q 34.71875 58.25 34.34375 60 
Q 33.984375 61.765625 33.203125 62.390625 
Q 32.421875 63.03125 31.25 63.03125 
Q 29.984375 63.03125 27.875 62.25 
L 27.25 63.96875 
L 40.578125 69.4375 
L 42.78125 69.4375 
L 42.78125 17.71875 
Q 42.78125 9.859375 43.140625 8.125 
Q 43.5 6.390625 44.3125 5.703125 
Q 45.125 5.03125 46.1875 5.03125 
Q 47.515625 5.03125 49.703125 5.859375 
L 50.25 4.15625 
L 36.96875 -1.375 
L 34.71875 -1.375 
z
M 34.71875 8.453125 
L 34.71875 31.5 
Q 34.421875 34.8125 32.953125 37.546875 
Q 31.5 40.28125 29.078125 41.671875 
Q 26.65625 43.0625 24.359375 43.0625 
Q 20.0625 43.0625 16.703125 39.203125 
Q 12.25 34.125 12.25 24.359375 
Q 12.25 14.5 16.546875 9.25 
Q 20.84375 4 26.125 4 
Q 30.5625 4 34.71875 8.453125 
z
" id="TimesNewRomanPSMT-100"/>
       <path d="M 16.265625 69.4375 
L 16.265625 36.71875 
Q 21.6875 42.671875 24.859375 44.359375 
Q 28.03125 46.046875 31.203125 46.046875 
Q 35.015625 46.046875 37.75 43.9375 
Q 40.484375 41.84375 41.796875 37.359375 
Q 42.71875 34.234375 42.71875 25.921875 
L 42.71875 10.109375 
Q 42.71875 5.859375 43.40625 4.296875 
Q 43.890625 3.125 45.0625 2.4375 
Q 46.234375 1.765625 49.359375 1.765625 
L 49.359375 0 
L 27.390625 0 
L 27.390625 1.765625 
L 28.421875 1.765625 
Q 31.546875 1.765625 32.765625 2.703125 
Q 33.984375 3.65625 34.46875 5.515625 
Q 34.625 6.296875 34.625 10.109375 
L 34.625 25.921875 
Q 34.625 33.25 33.859375 35.546875 
Q 33.109375 37.84375 31.4375 38.984375 
Q 29.78125 40.140625 27.4375 40.140625 
Q 25.046875 40.140625 22.453125 38.859375 
Q 19.875 37.59375 16.265625 33.734375 
L 16.265625 10.109375 
Q 16.265625 5.515625 16.765625 4.390625 
Q 17.28125 3.265625 18.671875 2.515625 
Q 20.0625 1.765625 23.484375 1.765625 
L 23.484375 0 
L 1.3125 0 
L 1.3125 1.765625 
Q 4.296875 1.765625 6 2.6875 
Q 6.984375 3.171875 7.5625 4.53125 
Q 8.15625 5.90625 8.15625 10.109375 
L 8.15625 50.59375 
Q 8.15625 58.25 7.78125 60 
Q 7.421875 61.765625 6.65625 62.390625 
Q 5.90625 63.03125 4.640625 63.03125 
Q 3.609375 63.03125 1.3125 62.25 
L 0.640625 63.96875 
L 14.015625 69.4375 
z
" id="TimesNewRomanPSMT-104"/>
       <path d="M 25 46.046875 
Q 35.15625 46.046875 41.3125 38.328125 
Q 46.53125 31.734375 46.53125 23.1875 
Q 46.53125 17.1875 43.640625 11.03125 
Q 40.765625 4.890625 35.71875 1.75 
Q 30.671875 -1.375 24.46875 -1.375 
Q 14.359375 -1.375 8.40625 6.6875 
Q 3.375 13.484375 3.375 21.921875 
Q 3.375 28.078125 6.421875 34.15625 
Q 9.46875 40.234375 14.453125 43.140625 
Q 19.4375 46.046875 25 46.046875 
z
M 23.484375 42.875 
Q 20.90625 42.875 18.28125 41.328125 
Q 15.671875 39.796875 14.0625 35.9375 
Q 12.453125 32.078125 12.453125 26.03125 
Q 12.453125 16.265625 16.328125 9.171875 
Q 20.21875 2.09375 26.5625 2.09375 
Q 31.296875 2.09375 34.375 6 
Q 37.453125 9.90625 37.453125 19.4375 
Q 37.453125 31.34375 32.328125 38.1875 
Q 28.859375 42.875 23.484375 42.875 
z
" id="TimesNewRomanPSMT-111"/>
       <path d="M 41.109375 17 
Q 39.3125 8.15625 34.03125 3.390625 
Q 28.765625 -1.375 22.359375 -1.375 
Q 14.75 -1.375 9.078125 5.015625 
Q 3.421875 11.421875 3.421875 22.3125 
Q 3.421875 32.859375 9.6875 39.453125 
Q 15.96875 46.046875 24.75 46.046875 
Q 31.34375 46.046875 35.59375 42.546875 
Q 39.84375 39.0625 39.84375 35.296875 
Q 39.84375 33.453125 38.640625 32.296875 
Q 37.453125 31.15625 35.296875 31.15625 
Q 32.421875 31.15625 30.953125 33.015625 
Q 30.125 34.03125 29.859375 36.90625 
Q 29.59375 39.796875 27.875 41.3125 
Q 26.171875 42.78125 23.140625 42.78125 
Q 18.265625 42.78125 15.28125 39.15625 
Q 11.328125 34.375 11.328125 26.515625 
Q 11.328125 18.5 15.25 12.375 
Q 19.1875 6.25 25.875 6.25 
Q 30.671875 6.25 34.46875 9.515625 
Q 37.15625 11.765625 39.703125 17.671875 
z
" id="TimesNewRomanPSMT-99"/>
       <path d="M 57.859375 66.21875 
L 58.59375 50.6875 
L 56.734375 50.6875 
Q 56.203125 54.78125 55.28125 56.546875 
Q 53.765625 59.375 51.25 60.71875 
Q 48.734375 62.0625 44.625 62.0625 
L 35.296875 62.0625 
L 35.296875 11.46875 
Q 35.296875 5.375 36.625 3.859375 
Q 38.484375 1.8125 42.328125 1.8125 
L 44.625 1.8125 
L 44.625 0 
L 16.546875 0 
L 16.546875 1.8125 
L 18.890625 1.8125 
Q 23.09375 1.8125 24.859375 4.34375 
Q 25.921875 5.90625 25.921875 11.46875 
L 25.921875 62.0625 
L 17.96875 62.0625 
Q 13.328125 62.0625 11.375 61.375 
Q 8.84375 60.453125 7.03125 57.8125 
Q 5.21875 55.171875 4.890625 50.6875 
L 3.03125 50.6875 
L 3.8125 66.21875 
z
" id="TimesNewRomanPSMT-84"/>
       <path d="M 1.703125 0 
L 1.703125 1.8125 
L 4.203125 1.8125 
Q 8.40625 1.8125 10.15625 4.5 
Q 11.234375 6.109375 11.234375 11.71875 
L 11.234375 54.5 
Q 11.234375 60.6875 9.859375 62.25 
Q 7.953125 64.40625 4.203125 64.40625 
L 1.703125 64.40625 
L 1.703125 66.21875 
L 28.65625 66.21875 
Q 43.5 66.21875 51.234375 62.84375 
Q 58.984375 59.46875 63.6875 51.609375 
Q 68.40625 43.75 68.40625 33.453125 
Q 68.40625 19.625 60.015625 10.359375 
Q 50.59375 0 31.296875 0 
z
M 20.609375 4.78125 
Q 26.8125 3.421875 31 3.421875 
Q 42.328125 3.421875 49.796875 11.375 
Q 57.28125 19.34375 57.28125 32.953125 
Q 57.28125 46.6875 49.796875 54.59375 
Q 42.328125 62.5 30.609375 62.5 
Q 26.21875 62.5 20.609375 61.078125 
z
" id="TimesNewRomanPSMT-68"/>
      </defs>
      <use xlink:href="#TimesNewRomanPSMT-65"/>
      <use x="72.216797" xlink:href="#TimesNewRomanPSMT-100"/>
      <use x="122.216797" xlink:href="#TimesNewRomanPSMT-104"/>
      <use x="172.216797" xlink:href="#TimesNewRomanPSMT-111"/>
      <use x="222.216797" xlink:href="#TimesNewRomanPSMT-99"/>
      <use x="266.601562" xlink:href="#TimesNewRomanPSMT-84"/>
      <use x="327.685547" xlink:href="#TimesNewRomanPSMT-68"/>
     </g>
    </g>
    <g id="line2d_16">
     <path d="M 257.549375 152.079062 
L 275.549375 152.079062 
" style="fill:none;stroke:#000000;stroke-linecap:round;stroke-width:1.5;"/>
    </g>
    <g id="line2d_17"/>
    <g id="text_11">
     <!-- DA-RL -->
     <g style="fill:#262626;" transform="translate(281.549375 159.079062)scale(0.2 -0.2)">
      <defs>
       <path d="M 4.046875 26.125 
L 29.296875 26.125 
L 29.296875 18.75 
L 4.046875 18.75 
z
" id="TimesNewRomanPSMT-45"/>
       <path d="M 57.328125 18.3125 
L 58.9375 17.96875 
L 53.265625 0 
L 2 0 
L 2 1.8125 
L 4.5 1.8125 
Q 8.6875 1.8125 10.5 4.546875 
Q 11.53125 6.109375 11.53125 11.765625 
L 11.53125 54.5 
Q 11.53125 60.6875 10.15625 62.25 
Q 8.25 64.40625 4.5 64.40625 
L 2 64.40625 
L 2 66.21875 
L 31.984375 66.21875 
L 31.984375 64.40625 
Q 26.703125 64.453125 24.578125 63.421875 
Q 22.46875 62.40625 21.6875 60.84375 
Q 20.90625 59.28125 20.90625 53.375 
L 20.90625 11.765625 
Q 20.90625 7.71875 21.6875 6.203125 
Q 22.265625 5.171875 23.484375 4.6875 
Q 24.703125 4.203125 31.109375 4.203125 
L 35.9375 4.203125 
Q 43.5625 4.203125 46.625 5.328125 
Q 49.703125 6.453125 52.234375 9.296875 
Q 54.78125 12.15625 57.328125 18.3125 
z
" id="TimesNewRomanPSMT-76"/>
      </defs>
      <use xlink:href="#TimesNewRomanPSMT-68"/>
      <use x="72.216797" xlink:href="#TimesNewRomanPSMT-65"/>
      <use x="144.433594" xlink:href="#TimesNewRomanPSMT-45"/>
      <use x="177.734375" xlink:href="#TimesNewRomanPSMT-82"/>
      <use x="244.433594" xlink:href="#TimesNewRomanPSMT-76"/>
     </g>
    </g>
   </g>
  </g>
 </g>
 <defs>
  <clipPath id="pd45f8cc96d">
   <rect height="249.48" width="334.8" x="41.7" y="7.2"/>
  </clipPath>
 </defs>
</svg>
